<svg width="150" height="150" viewBox="0 0 150 150" fill="none" xmlns="http://www.w3.org/2000/svg">
<g clip-path="url(#clip0_91_875)">
<path d="M109.375 150C86.975 150 68.75 131.775 68.75 109.375C68.75 86.975 86.975 68.75 109.375 68.75C131.775 68.75 150 86.975 150 109.375C150 131.775 131.775 150 109.375 150ZM109.375 75C90.4188 75 75 90.425 75 109.375C75 128.325 90.4188 143.75 109.375 143.75C128.331 143.75 143.75 128.325 143.75 109.375C143.75 90.425 128.331 75 109.375 75Z" fill="#11BE6A"/>
<path d="M103.127 125.001C102.302 125.001 101.502 124.67 100.914 124.089L88.4141 111.589C87.1953 110.37 87.1953 108.389 88.4141 107.17C89.6328 105.951 91.6141 105.951 92.8328 107.17L102.97 117.307L122.645 94.82C123.783 93.5138 125.758 93.3888 127.058 94.5263C128.358 95.6638 128.489 97.6325 127.352 98.9325L105.477 123.933C104.908 124.583 104.089 124.97 103.227 125.001C103.195 125.001 103.158 125.001 103.127 125.001Z" fill="#11BE6A"/>
<path d="M59.375 131.25H15.625C7.0125 131.25 0 124.244 0 115.625V34.375C0 25.7563 7.0125 18.75 15.625 18.75H28.125C29.85 18.75 31.25 20.15 31.25 21.875C31.25 23.6 29.85 25 28.125 25H15.625C10.4563 25 6.25 29.2063 6.25 34.375V115.625C6.25 120.794 10.4563 125 15.625 125H59.375C61.1 125 62.5 126.4 62.5 128.125C62.5 129.85 61.1 131.25 59.375 131.25Z" fill="#11BE6A"/>
<path d="M103.125 56.25C101.4 56.25 100 54.85 100 53.125V34.375C100 29.2063 95.7938 25 90.625 25H78.125C76.4 25 75 23.6 75 21.875C75 20.15 76.4 18.75 78.125 18.75H90.625C99.2375 18.75 106.25 25.7563 106.25 34.375V53.125C106.25 54.85 104.85 56.25 103.125 56.25Z" fill="#11BE6A"/>
<path d="M71.875 37.5H34.375C29.2062 37.5 25 33.2938 25 28.125V15.625C25 13.9 26.4 12.5 28.125 12.5H37.8125C39.2688 5.375 45.575 0 53.125 0C60.675 0 66.9812 5.375 68.4375 12.5H78.125C79.85 12.5 81.25 13.9 81.25 15.625V28.125C81.25 33.2938 77.0438 37.5 71.875 37.5ZM31.25 18.75V28.125C31.25 29.8438 32.65 31.25 34.375 31.25H71.875C73.6 31.25 75 29.8438 75 28.125V18.75H65.625C63.9 18.75 62.5 17.35 62.5 15.625C62.5 10.4563 58.2938 6.25 53.125 6.25C47.9562 6.25 43.75 10.4563 43.75 15.625C43.75 17.35 42.35 18.75 40.625 18.75H31.25Z" fill="#11BE6A"/>
<path d="M84.375 56.25H21.875C20.15 56.25 18.75 54.85 18.75 53.125C18.75 51.4 20.15 50 21.875 50H84.375C86.1 50 87.5 51.4 87.5 53.125C87.5 54.85 86.1 56.25 84.375 56.25Z" fill="#11BE6A"/>
<path d="M65.625 75H21.875C20.15 75 18.75 73.6 18.75 71.875C18.75 70.15 20.15 68.75 21.875 68.75H65.625C67.35 68.75 68.75 70.15 68.75 71.875C68.75 73.6 67.35 75 65.625 75Z" fill="#11BE6A"/>
<path d="M53.125 93.75H21.875C20.15 93.75 18.75 92.35 18.75 90.625C18.75 88.9 20.15 87.5 21.875 87.5H53.125C54.85 87.5 56.25 88.9 56.25 90.625C56.25 92.35 54.85 93.75 53.125 93.75Z" fill="#11BE6A"/>
</g>
<defs>
<clipPath id="clip0_91_875">
<rect width="150" height="150" fill="white"/>
</clipPath>
</defs>
</svg>
