<svg width="439" height="42" viewBox="0 0 439 42" fill="none" xmlns="http://www.w3.org/2000/svg">
<path d="M0 2C0 0.89543 0.895431 0 2 0H437C438.105 0 439 0.895431 439 2V40C439 41.1046 438.105 42 437 42H2.00001C0.895436 42 0 41.1046 0 40V2Z" fill="#D9D9D9" fill-opacity="0.5"/>
<path d="M0 2C0 0.89543 0.895431 0 2 0H5V42H2.00001C0.895436 42 0 41.1046 0 40V2Z" fill="#006DFF"/>
<path d="M34.68 21.05H35.84C36.16 21.05 36.43 21.0167 36.65 20.95C36.8767 20.8833 37.0567 20.7967 37.19 20.69C37.3233 20.5767 37.42 20.4467 37.48 20.3C37.54 20.1467 37.57 19.9833 37.57 19.81C37.57 19.6433 37.54 19.4867 37.48 19.34C37.42 19.1867 37.3233 19.0533 37.19 18.94C37.0567 18.8267 36.8767 18.74 36.65 18.68C36.43 18.6133 36.16 18.58 35.84 18.58H34.68V21.05ZM33.96 17.92H36.02C36.74 17.92 37.3067 18.0767 37.72 18.39C38.14 18.7033 38.35 19.1767 38.35 19.81C38.35 20.4433 38.14 20.92 37.72 21.24C37.3067 21.5533 36.74 21.71 36.02 21.71H34.68V25H33.96V17.92Z" fill="#5F5F5F"/>
<path d="M40.2722 25H39.6122V17.44H40.2722V25Z" fill="#5F5F5F"/>
<path d="M45.5045 22.3C45.5045 21.8533 45.3712 21.4933 45.1045 21.22C44.8379 20.94 44.4645 20.8 43.9845 20.8C43.7712 20.8 43.5645 20.8433 43.3645 20.93C43.1645 21.01 42.9879 21.12 42.8345 21.26C42.6879 21.4 42.5679 21.56 42.4745 21.74C42.3879 21.92 42.3445 22.1067 42.3445 22.3H45.5045ZM42.3245 22.84C42.3445 23.0733 42.4012 23.2933 42.4945 23.5C42.5879 23.7067 42.7112 23.8867 42.8645 24.04C43.0179 24.1867 43.1945 24.3033 43.3945 24.39C43.5945 24.4767 43.8112 24.52 44.0445 24.52C44.3979 24.52 44.7012 24.44 44.9545 24.28C45.2145 24.1133 45.4112 23.9233 45.5445 23.71L46.0545 24.13C45.7745 24.4833 45.4645 24.7367 45.1245 24.89C44.7912 25.0433 44.4312 25.12 44.0445 25.12C43.6979 25.12 43.3745 25.06 43.0745 24.94C42.7812 24.8133 42.5279 24.64 42.3145 24.42C42.1012 24.2 41.9312 23.94 41.8045 23.64C41.6845 23.34 41.6245 23.0133 41.6245 22.66C41.6245 22.3067 41.6845 21.98 41.8045 21.68C41.9245 21.38 42.0912 21.12 42.3045 20.9C42.5179 20.68 42.7679 20.51 43.0545 20.39C43.3412 20.2633 43.6512 20.2 43.9845 20.2C44.3379 20.2 44.6545 20.2633 44.9345 20.39C45.2145 20.5167 45.4479 20.6867 45.6345 20.9C45.8279 21.1067 45.9745 21.3533 46.0745 21.64C46.1745 21.92 46.2245 22.22 46.2245 22.54V22.84H42.3245Z" fill="#5F5F5F"/>
<path d="M50.0812 22.67C49.9145 22.67 49.7045 22.68 49.4512 22.7C49.2045 22.7133 48.9645 22.7533 48.7312 22.82C48.5045 22.88 48.3078 22.9767 48.1412 23.11C47.9812 23.2433 47.9012 23.4267 47.9012 23.66C47.9012 23.8133 47.9312 23.9467 47.9912 24.06C48.0578 24.1667 48.1445 24.2567 48.2512 24.33C48.3578 24.3967 48.4745 24.4467 48.6012 24.48C48.7345 24.5067 48.8678 24.52 49.0012 24.52C49.2412 24.52 49.4478 24.48 49.6212 24.4C49.8012 24.32 49.9512 24.2133 50.0712 24.08C50.1912 23.94 50.2778 23.78 50.3312 23.6C50.3912 23.4133 50.4212 23.2167 50.4212 23.01V22.67H50.0812ZM50.4212 22.13V22.01C50.4212 21.2033 50.0212 20.8 49.2212 20.8C48.6745 20.8 48.1978 20.9833 47.7912 21.35L47.3912 20.88C47.8312 20.4267 48.4912 20.2 49.3712 20.2C49.5978 20.2 49.8145 20.2333 50.0212 20.3C50.2345 20.3667 50.4178 20.47 50.5712 20.61C50.7245 20.7433 50.8478 20.9133 50.9412 21.12C51.0345 21.3267 51.0812 21.5733 51.0812 21.86V23.95C51.0812 24.13 51.0878 24.32 51.1012 24.52C51.1212 24.7133 51.1412 24.8733 51.1612 25H50.5212C50.5012 24.8867 50.4845 24.7633 50.4712 24.63C50.4645 24.4967 50.4612 24.3667 50.4612 24.24H50.4412C50.2478 24.5533 50.0178 24.78 49.7512 24.92C49.4912 25.0533 49.1712 25.12 48.7912 25.12C48.5845 25.12 48.3845 25.09 48.1912 25.03C47.9978 24.9767 47.8245 24.8933 47.6712 24.78C47.5245 24.66 47.4045 24.5167 47.3112 24.35C47.2245 24.1767 47.1812 23.9767 47.1812 23.75C47.1812 23.37 47.2778 23.0733 47.4712 22.86C47.6712 22.64 47.9178 22.4767 48.2112 22.37C48.5112 22.2633 48.8278 22.1967 49.1612 22.17C49.5012 22.1433 49.8112 22.13 50.0912 22.13H50.4212Z" fill="#5F5F5F"/>
<path d="M55.0867 21.43C54.9867 21.2367 54.8534 21.0833 54.6867 20.97C54.5201 20.8567 54.3167 20.8 54.0767 20.8C53.9634 20.8 53.8467 20.8133 53.7267 20.84C53.6134 20.8667 53.5101 20.91 53.4167 20.97C53.3234 21.0233 53.2467 21.0933 53.1867 21.18C53.1334 21.2667 53.1067 21.3733 53.1067 21.5C53.1067 21.72 53.1834 21.88 53.3367 21.98C53.4901 22.08 53.7201 22.1667 54.0267 22.24L54.6967 22.4C55.0234 22.4733 55.2934 22.6233 55.5067 22.85C55.7267 23.07 55.8367 23.3467 55.8367 23.68C55.8367 23.9333 55.7834 24.1533 55.6767 24.34C55.5767 24.52 55.4401 24.67 55.2667 24.79C55.1001 24.9033 54.9067 24.9867 54.6867 25.04C54.4667 25.0933 54.2434 25.12 54.0167 25.12C53.6567 25.12 53.3201 25.0533 53.0067 24.92C52.7001 24.78 52.4367 24.5433 52.2167 24.21L52.7867 23.82C52.9201 24.0333 53.0867 24.2033 53.2867 24.33C53.4934 24.4567 53.7367 24.52 54.0167 24.52C54.1501 24.52 54.2834 24.5067 54.4167 24.48C54.5501 24.4467 54.6667 24.4 54.7667 24.34C54.8734 24.2733 54.9567 24.19 55.0167 24.09C55.0834 23.99 55.1167 23.8733 55.1167 23.74C55.1167 23.5067 55.0301 23.34 54.8567 23.24C54.6834 23.1333 54.4734 23.05 54.2267 22.99L53.5867 22.84C53.5067 22.82 53.3967 22.7867 53.2567 22.74C53.1234 22.6933 52.9901 22.6233 52.8567 22.53C52.7301 22.4367 52.6201 22.3167 52.5267 22.17C52.4334 22.0167 52.3867 21.83 52.3867 21.61C52.3867 21.37 52.4334 21.16 52.5267 20.98C52.6267 20.8 52.7567 20.6533 52.9167 20.54C53.0834 20.4267 53.2701 20.3433 53.4767 20.29C53.6834 20.23 53.8967 20.2 54.1167 20.2C54.4434 20.2 54.7467 20.2633 55.0267 20.39C55.3067 20.5167 55.5234 20.7333 55.6767 21.04L55.0867 21.43Z" fill="#5F5F5F"/>
<path d="M60.5045 22.3C60.5045 21.8533 60.3712 21.4933 60.1045 21.22C59.8379 20.94 59.4645 20.8 58.9845 20.8C58.7712 20.8 58.5645 20.8433 58.3645 20.93C58.1645 21.01 57.9879 21.12 57.8345 21.26C57.6879 21.4 57.5679 21.56 57.4745 21.74C57.3879 21.92 57.3445 22.1067 57.3445 22.3H60.5045ZM57.3245 22.84C57.3445 23.0733 57.4012 23.2933 57.4945 23.5C57.5879 23.7067 57.7112 23.8867 57.8645 24.04C58.0179 24.1867 58.1945 24.3033 58.3945 24.39C58.5945 24.4767 58.8112 24.52 59.0445 24.52C59.3979 24.52 59.7012 24.44 59.9545 24.28C60.2145 24.1133 60.4112 23.9233 60.5445 23.71L61.0545 24.13C60.7745 24.4833 60.4645 24.7367 60.1245 24.89C59.7912 25.0433 59.4312 25.12 59.0445 25.12C58.6979 25.12 58.3745 25.06 58.0745 24.94C57.7812 24.8133 57.5279 24.64 57.3145 24.42C57.1012 24.2 56.9312 23.94 56.8045 23.64C56.6845 23.34 56.6245 23.0133 56.6245 22.66C56.6245 22.3067 56.6845 21.98 56.8045 21.68C56.9245 21.38 57.0912 21.12 57.3045 20.9C57.5179 20.68 57.7679 20.51 58.0545 20.39C58.3412 20.2633 58.6512 20.2 58.9845 20.2C59.3379 20.2 59.6545 20.2633 59.9345 20.39C60.2145 20.5167 60.4479 20.6867 60.6345 20.9C60.8279 21.1067 60.9745 21.3533 61.0745 21.64C61.1745 21.92 61.2245 22.22 61.2245 22.54V22.84H57.3245Z" fill="#5F5F5F"/>
<path d="M69.4744 22.66C69.4744 22.4 69.431 22.1567 69.3444 21.93C69.2644 21.7033 69.1477 21.5067 68.9944 21.34C68.841 21.1733 68.6544 21.0433 68.4344 20.95C68.221 20.85 67.9777 20.8 67.7044 20.8C67.431 20.8 67.181 20.85 66.9544 20.95C66.7277 21.0433 66.531 21.1733 66.3644 21.34C66.1977 21.5067 66.0677 21.7033 65.9744 21.93C65.881 22.1567 65.8344 22.4 65.8344 22.66C65.8344 22.92 65.881 23.1633 65.9744 23.39C66.0677 23.6167 66.1977 23.8133 66.3644 23.98C66.531 24.1467 66.7277 24.28 66.9544 24.38C67.181 24.4733 67.431 24.52 67.7044 24.52C67.9777 24.52 68.221 24.4733 68.4344 24.38C68.6544 24.28 68.841 24.1467 68.9944 23.98C69.1477 23.8133 69.2644 23.6167 69.3444 23.39C69.431 23.1633 69.4744 22.92 69.4744 22.66ZM65.2044 17.44H65.8644V21.1H65.8844C65.991 20.94 66.1177 20.8033 66.2644 20.69C66.411 20.5767 66.5644 20.4833 66.7244 20.41C66.8844 20.3367 67.0477 20.2833 67.2144 20.25C67.3877 20.2167 67.551 20.2 67.7044 20.2C68.071 20.2 68.4044 20.2633 68.7044 20.39C69.011 20.51 69.2744 20.68 69.4944 20.9C69.7144 21.12 69.8844 21.38 70.0044 21.68C70.131 21.98 70.1944 22.3067 70.1944 22.66C70.1944 23.0133 70.131 23.34 70.0044 23.64C69.8844 23.94 69.7144 24.2 69.4944 24.42C69.2744 24.64 69.011 24.8133 68.7044 24.94C68.4044 25.06 68.071 25.12 67.7044 25.12C67.551 25.12 67.3877 25.1033 67.2144 25.07C67.0477 25.0367 66.8844 24.9833 66.7244 24.91C66.5644 24.8367 66.411 24.7433 66.2644 24.63C66.1177 24.5167 65.991 24.38 65.8844 24.22H65.8644V25H65.2044V17.44Z" fill="#5F5F5F"/>
<path d="M74.9577 22.3C74.9577 21.8533 74.8243 21.4933 74.5577 21.22C74.291 20.94 73.9177 20.8 73.4377 20.8C73.2243 20.8 73.0177 20.8433 72.8177 20.93C72.6177 21.01 72.441 21.12 72.2877 21.26C72.141 21.4 72.021 21.56 71.9277 21.74C71.841 21.92 71.7977 22.1067 71.7977 22.3H74.9577ZM71.7777 22.84C71.7977 23.0733 71.8543 23.2933 71.9477 23.5C72.041 23.7067 72.1643 23.8867 72.3177 24.04C72.471 24.1867 72.6477 24.3033 72.8477 24.39C73.0477 24.4767 73.2643 24.52 73.4977 24.52C73.851 24.52 74.1543 24.44 74.4077 24.28C74.6677 24.1133 74.8643 23.9233 74.9977 23.71L75.5077 24.13C75.2277 24.4833 74.9177 24.7367 74.5777 24.89C74.2443 25.0433 73.8843 25.12 73.4977 25.12C73.151 25.12 72.8277 25.06 72.5277 24.94C72.2343 24.8133 71.981 24.64 71.7677 24.42C71.5543 24.2 71.3843 23.94 71.2577 23.64C71.1377 23.34 71.0777 23.0133 71.0777 22.66C71.0777 22.3067 71.1377 21.98 71.2577 21.68C71.3777 21.38 71.5443 21.12 71.7577 20.9C71.971 20.68 72.221 20.51 72.5077 20.39C72.7943 20.2633 73.1043 20.2 73.4377 20.2C73.791 20.2 74.1077 20.2633 74.3877 20.39C74.6677 20.5167 74.901 20.6867 75.0877 20.9C75.281 21.1067 75.4277 21.3533 75.5277 21.64C75.6277 21.92 75.6777 22.22 75.6777 22.54V22.84H71.7777Z" fill="#5F5F5F"/>
<path d="M83.0675 21.42C82.9542 21.2467 82.7942 21.1 82.5875 20.98C82.3875 20.86 82.1575 20.8 81.8975 20.8C81.6242 20.7933 81.3775 20.8367 81.1575 20.93C80.9442 21.0233 80.7608 21.1533 80.6075 21.32C80.4542 21.4867 80.3375 21.6867 80.2575 21.92C80.1775 22.1467 80.1375 22.3933 80.1375 22.66C80.1375 22.9267 80.1775 23.1767 80.2575 23.41C80.3375 23.6367 80.4542 23.8333 80.6075 24C80.7608 24.1667 80.9442 24.2967 81.1575 24.39C81.3775 24.4833 81.6242 24.5267 81.8975 24.52C82.1575 24.52 82.3875 24.46 82.5875 24.34C82.7942 24.22 82.9542 24.0733 83.0675 23.9L83.6075 24.31C83.3742 24.5833 83.1108 24.7867 82.8175 24.92C82.5242 25.0467 82.2175 25.1133 81.8975 25.12C81.5175 25.1267 81.1742 25.07 80.8675 24.95C80.5608 24.8233 80.2975 24.65 80.0775 24.43C79.8642 24.21 79.7008 23.95 79.5875 23.65C79.4742 23.3433 79.4175 23.0133 79.4175 22.66C79.4175 22.3067 79.4742 21.98 79.5875 21.68C79.7008 21.3733 79.8642 21.11 80.0775 20.89C80.2975 20.67 80.5608 20.5 80.8675 20.38C81.1742 20.2533 81.5175 20.1933 81.8975 20.2C82.2175 20.2067 82.5242 20.2767 82.8175 20.41C83.1108 20.5367 83.3742 20.7367 83.6075 21.01L83.0675 21.42Z" fill="#5F5F5F"/>
<path d="M87.1417 22.67C86.975 22.67 86.7651 22.68 86.5117 22.7C86.2651 22.7133 86.0251 22.7533 85.7917 22.82C85.5651 22.88 85.3684 22.9767 85.2017 23.11C85.0417 23.2433 84.9617 23.4267 84.9617 23.66C84.9617 23.8133 84.9917 23.9467 85.0517 24.06C85.1184 24.1667 85.2051 24.2567 85.3117 24.33C85.4184 24.3967 85.5351 24.4467 85.6617 24.48C85.7951 24.5067 85.9284 24.52 86.0617 24.52C86.3017 24.52 86.5084 24.48 86.6817 24.4C86.8617 24.32 87.0117 24.2133 87.1317 24.08C87.2517 23.94 87.3384 23.78 87.3917 23.6C87.4517 23.4133 87.4817 23.2167 87.4817 23.01V22.67H87.1417ZM87.4817 22.13V22.01C87.4817 21.2033 87.0817 20.8 86.2817 20.8C85.735 20.8 85.2584 20.9833 84.8517 21.35L84.4517 20.88C84.8917 20.4267 85.5517 20.2 86.4317 20.2C86.6584 20.2 86.8751 20.2333 87.0817 20.3C87.2951 20.3667 87.4784 20.47 87.6317 20.61C87.7851 20.7433 87.9084 20.9133 88.0017 21.12C88.095 21.3267 88.1417 21.5733 88.1417 21.86V23.95C88.1417 24.13 88.1484 24.32 88.1617 24.52C88.1817 24.7133 88.2017 24.8733 88.2217 25H87.5817C87.5617 24.8867 87.545 24.7633 87.5317 24.63C87.525 24.4967 87.5217 24.3667 87.5217 24.24H87.5017C87.3084 24.5533 87.0784 24.78 86.8117 24.92C86.5517 25.0533 86.2317 25.12 85.8517 25.12C85.645 25.12 85.445 25.09 85.2517 25.03C85.0584 24.9767 84.8851 24.8933 84.7317 24.78C84.5851 24.66 84.4651 24.5167 84.3717 24.35C84.2851 24.1767 84.2417 23.9767 84.2417 23.75C84.2417 23.37 84.3384 23.0733 84.5317 22.86C84.7317 22.64 84.9784 22.4767 85.2717 22.37C85.5717 22.2633 85.8884 22.1967 86.2217 22.17C86.5617 22.1433 86.8717 22.13 87.1517 22.13H87.4817Z" fill="#5F5F5F"/>
<path d="M89.7373 21.78C89.7373 21.5733 89.7306 21.3633 89.7173 21.15C89.7106 20.9367 89.7039 20.66 89.6973 20.32H90.3473V21.19H90.3673C90.4139 21.0633 90.4806 20.9433 90.5673 20.83C90.6539 20.71 90.7573 20.6033 90.8773 20.51C91.0039 20.4167 91.1473 20.3433 91.3073 20.29C91.4739 20.23 91.6606 20.2 91.8673 20.2C92.0539 20.2 92.2173 20.22 92.3573 20.26L92.2273 20.91C92.1406 20.8767 92.0139 20.86 91.8473 20.86C91.5939 20.86 91.3773 20.91 91.1973 21.01C91.0173 21.1033 90.8673 21.2267 90.7473 21.38C90.6273 21.5267 90.5373 21.6867 90.4773 21.86C90.4239 22.0333 90.3973 22.2 90.3973 22.36V25H89.7373V21.78Z" fill="#5F5F5F"/>
<path d="M96.4518 22.3C96.4518 21.8533 96.3185 21.4933 96.0518 21.22C95.7851 20.94 95.4118 20.8 94.9318 20.8C94.7185 20.8 94.5118 20.8433 94.3118 20.93C94.1118 21.01 93.9351 21.12 93.7818 21.26C93.6351 21.4 93.5151 21.56 93.4218 21.74C93.3351 21.92 93.2918 22.1067 93.2918 22.3H96.4518ZM93.2718 22.84C93.2918 23.0733 93.3485 23.2933 93.4418 23.5C93.5351 23.7067 93.6585 23.8867 93.8118 24.04C93.9651 24.1867 94.1418 24.3033 94.3418 24.39C94.5418 24.4767 94.7585 24.52 94.9918 24.52C95.3451 24.52 95.6485 24.44 95.9018 24.28C96.1618 24.1133 96.3585 23.9233 96.4918 23.71L97.0018 24.13C96.7218 24.4833 96.4118 24.7367 96.0718 24.89C95.7385 25.0433 95.3785 25.12 94.9918 25.12C94.6451 25.12 94.3218 25.06 94.0218 24.94C93.7285 24.8133 93.4751 24.64 93.2618 24.42C93.0485 24.2 92.8785 23.94 92.7518 23.64C92.6318 23.34 92.5718 23.0133 92.5718 22.66C92.5718 22.3067 92.6318 21.98 92.7518 21.68C92.8718 21.38 93.0385 21.12 93.2518 20.9C93.4651 20.68 93.7151 20.51 94.0018 20.39C94.2885 20.2633 94.5985 20.2 94.9318 20.2C95.2851 20.2 95.6018 20.2633 95.8818 20.39C96.1618 20.5167 96.3951 20.6867 96.5818 20.9C96.7751 21.1067 96.9218 21.3533 97.0218 21.64C97.1218 21.92 97.1718 22.22 97.1718 22.54V22.84H93.2718Z" fill="#5F5F5F"/>
<path d="M100.548 20.92H99.4384V25H98.7784V20.92H97.7884V20.32H98.7784V19.04C98.7784 18.42 98.9218 17.98 99.2084 17.72C99.4951 17.4533 99.8751 17.32 100.348 17.32C100.442 17.32 100.535 17.3267 100.628 17.34C100.728 17.3533 100.825 17.37 100.918 17.39L100.798 17.99C100.718 17.97 100.635 17.9533 100.548 17.94C100.462 17.9267 100.375 17.92 100.288 17.92C100.108 17.92 99.9618 17.95 99.8484 18.01C99.7351 18.07 99.6484 18.1567 99.5884 18.27C99.5284 18.3767 99.4884 18.5033 99.4684 18.65C99.4484 18.7967 99.4384 18.9533 99.4384 19.12V20.32H100.548V20.92Z" fill="#5F5F5F"/>
<path d="M104.707 25C104.694 24.8733 104.684 24.75 104.677 24.63C104.677 24.5033 104.677 24.3767 104.677 24.25H104.657C104.584 24.3767 104.491 24.4933 104.377 24.6C104.264 24.7067 104.137 24.8 103.997 24.88C103.857 24.9533 103.707 25.01 103.547 25.05C103.394 25.0967 103.241 25.12 103.087 25.12C102.487 25.12 102.044 24.9633 101.757 24.65C101.471 24.33 101.327 23.8767 101.327 23.29V20.32H101.987V22.91C101.987 23.17 102.007 23.4 102.047 23.6C102.087 23.8 102.154 23.97 102.247 24.11C102.347 24.2433 102.477 24.3467 102.637 24.42C102.804 24.4867 103.011 24.52 103.257 24.52C103.291 24.52 103.384 24.5067 103.537 24.48C103.691 24.4533 103.851 24.38 104.017 24.26C104.191 24.14 104.344 23.96 104.477 23.72C104.611 23.48 104.677 23.1467 104.677 22.72V20.32H105.337V23.97C105.337 24.0967 105.341 24.2567 105.347 24.45C105.361 24.6433 105.374 24.8267 105.387 25H104.707Z" fill="#5F5F5F"/>
<path d="M107.694 25H107.034V17.44H107.694V25Z" fill="#5F5F5F"/>
<path d="M112.7 20.32C112.713 20.4467 112.72 20.5733 112.72 20.7C112.726 20.82 112.73 20.9433 112.73 21.07H112.75C112.823 20.9433 112.916 20.8267 113.03 20.72C113.143 20.6133 113.27 20.5233 113.41 20.45C113.55 20.37 113.696 20.31 113.85 20.27C114.01 20.2233 114.166 20.2 114.32 20.2C114.92 20.2 115.363 20.36 115.65 20.68C115.936 20.9933 116.08 21.4433 116.08 22.03V25H115.42V22.41C115.42 21.89 115.33 21.4933 115.15 21.22C114.97 20.94 114.636 20.8 114.15 20.8C114.116 20.8 114.023 20.8133 113.87 20.84C113.716 20.8667 113.553 20.94 113.38 21.06C113.213 21.18 113.063 21.36 112.93 21.6C112.796 21.84 112.73 22.1733 112.73 22.6V25H112.07V21.35C112.07 21.2233 112.063 21.0633 112.05 20.87C112.043 20.6767 112.033 20.4933 112.02 20.32H112.7Z" fill="#5F5F5F"/>
<path d="M121.636 22.66C121.636 22.4 121.593 22.1567 121.506 21.93C121.426 21.7033 121.31 21.5067 121.156 21.34C121.003 21.1733 120.816 21.0433 120.596 20.95C120.383 20.85 120.14 20.8 119.866 20.8C119.593 20.8 119.346 20.85 119.126 20.95C118.913 21.0433 118.73 21.1733 118.576 21.34C118.43 21.5067 118.313 21.7033 118.226 21.93C118.146 22.1567 118.106 22.4 118.106 22.66C118.106 22.92 118.146 23.1633 118.226 23.39C118.313 23.6167 118.43 23.8133 118.576 23.98C118.73 24.1467 118.913 24.28 119.126 24.38C119.346 24.4733 119.593 24.52 119.866 24.52C120.14 24.52 120.383 24.4733 120.596 24.38C120.816 24.28 121.003 24.1467 121.156 23.98C121.31 23.8133 121.426 23.6167 121.506 23.39C121.593 23.1633 121.636 22.92 121.636 22.66ZM122.356 22.66C122.356 23.0133 122.293 23.34 122.166 23.64C122.046 23.94 121.876 24.2 121.656 24.42C121.436 24.64 121.173 24.8133 120.866 24.94C120.566 25.06 120.233 25.12 119.866 25.12C119.506 25.12 119.173 25.06 118.866 24.94C118.566 24.8133 118.306 24.64 118.086 24.42C117.866 24.2 117.693 23.94 117.566 23.64C117.446 23.34 117.386 23.0133 117.386 22.66C117.386 22.3067 117.446 21.98 117.566 21.68C117.693 21.38 117.866 21.12 118.086 20.9C118.306 20.68 118.566 20.51 118.866 20.39C119.173 20.2633 119.506 20.2 119.866 20.2C120.233 20.2 120.566 20.2633 120.866 20.39C121.173 20.51 121.436 20.68 121.656 20.9C121.876 21.12 122.046 21.38 122.166 21.68C122.293 21.98 122.356 22.3067 122.356 22.66Z" fill="#5F5F5F"/>
<path d="M125.974 20.92H124.624V23.68C124.624 23.8533 124.641 23.9967 124.674 24.11C124.707 24.2167 124.754 24.3 124.814 24.36C124.874 24.42 124.944 24.4633 125.024 24.49C125.111 24.51 125.204 24.52 125.304 24.52C125.417 24.52 125.534 24.5033 125.654 24.47C125.774 24.4367 125.884 24.3933 125.984 24.34L126.014 24.95C125.767 25.0633 125.471 25.12 125.124 25.12C124.997 25.12 124.864 25.1033 124.724 25.07C124.591 25.0367 124.467 24.9733 124.354 24.88C124.241 24.7867 124.147 24.66 124.074 24.5C124.001 24.34 123.964 24.13 123.964 23.87V20.92H122.974V20.32H123.964V19H124.624V20.32H125.974V20.92Z" fill="#5F5F5F"/>
<path d="M132.077 20.92H130.727V23.68C130.727 23.8533 130.744 23.9967 130.777 24.11C130.811 24.2167 130.857 24.3 130.917 24.36C130.977 24.42 131.048 24.4633 131.128 24.49C131.214 24.51 131.308 24.52 131.408 24.52C131.521 24.52 131.638 24.5033 131.758 24.47C131.878 24.4367 131.987 24.3933 132.087 24.34L132.117 24.95C131.871 25.0633 131.574 25.12 131.227 25.12C131.101 25.12 130.967 25.1033 130.827 25.07C130.694 25.0367 130.571 24.9733 130.458 24.88C130.344 24.7867 130.251 24.66 130.178 24.5C130.104 24.34 130.068 24.13 130.068 23.87V20.92H129.077V20.32H130.068V19H130.727V20.32H132.077V20.92Z" fill="#5F5F5F"/>
<path d="M136.988 22.66C136.988 22.4 136.944 22.1567 136.858 21.93C136.778 21.7033 136.661 21.5067 136.508 21.34C136.354 21.1733 136.168 21.0433 135.948 20.95C135.734 20.85 135.491 20.8 135.218 20.8C134.944 20.8 134.698 20.85 134.478 20.95C134.264 21.0433 134.081 21.1733 133.928 21.34C133.781 21.5067 133.664 21.7033 133.578 21.93C133.498 22.1567 133.458 22.4 133.458 22.66C133.458 22.92 133.498 23.1633 133.578 23.39C133.664 23.6167 133.781 23.8133 133.928 23.98C134.081 24.1467 134.264 24.28 134.478 24.38C134.698 24.4733 134.944 24.52 135.218 24.52C135.491 24.52 135.734 24.4733 135.948 24.38C136.168 24.28 136.354 24.1467 136.508 23.98C136.661 23.8133 136.778 23.6167 136.858 23.39C136.944 23.1633 136.988 22.92 136.988 22.66ZM137.708 22.66C137.708 23.0133 137.644 23.34 137.518 23.64C137.398 23.94 137.228 24.2 137.008 24.42C136.788 24.64 136.524 24.8133 136.218 24.94C135.918 25.06 135.584 25.12 135.218 25.12C134.858 25.12 134.524 25.06 134.218 24.94C133.918 24.8133 133.658 24.64 133.438 24.42C133.218 24.2 133.044 23.94 132.918 23.64C132.798 23.34 132.738 23.0133 132.738 22.66C132.738 22.3067 132.798 21.98 132.918 21.68C133.044 21.38 133.218 21.12 133.438 20.9C133.658 20.68 133.918 20.51 134.218 20.39C134.524 20.2633 134.858 20.2 135.218 20.2C135.584 20.2 135.918 20.2633 136.218 20.39C136.524 20.51 136.788 20.68 137.008 20.9C137.228 21.12 137.398 21.38 137.518 21.68C137.644 21.98 137.708 22.3067 137.708 22.66Z" fill="#5F5F5F"/>
<path d="M145.959 22.66C145.959 22.4 145.915 22.1567 145.829 21.93C145.749 21.7033 145.632 21.5067 145.479 21.34C145.325 21.1733 145.139 21.0433 144.919 20.95C144.705 20.85 144.462 20.8 144.189 20.8C143.915 20.8 143.665 20.85 143.439 20.95C143.212 21.0433 143.015 21.1733 142.849 21.34C142.682 21.5067 142.552 21.7033 142.459 21.93C142.365 22.1567 142.319 22.4 142.319 22.66C142.319 22.92 142.365 23.1633 142.459 23.39C142.552 23.6167 142.682 23.8133 142.849 23.98C143.015 24.1467 143.212 24.28 143.439 24.38C143.665 24.4733 143.915 24.52 144.189 24.52C144.462 24.52 144.705 24.4733 144.919 24.38C145.139 24.28 145.325 24.1467 145.479 23.98C145.632 23.8133 145.749 23.6167 145.829 23.39C145.915 23.1633 145.959 22.92 145.959 22.66ZM141.689 20.32H142.349V21.1H142.369C142.475 20.94 142.602 20.8033 142.749 20.69C142.895 20.5767 143.049 20.4833 143.209 20.41C143.369 20.3367 143.532 20.2833 143.699 20.25C143.872 20.2167 144.035 20.2 144.189 20.2C144.555 20.2 144.889 20.2633 145.189 20.39C145.495 20.51 145.759 20.68 145.979 20.9C146.199 21.12 146.369 21.38 146.489 21.68C146.615 21.98 146.679 22.3067 146.679 22.66C146.679 23.0133 146.615 23.34 146.489 23.64C146.369 23.94 146.199 24.2 145.979 24.42C145.759 24.64 145.495 24.8133 145.189 24.94C144.889 25.06 144.555 25.12 144.189 25.12C144.035 25.12 143.872 25.1033 143.699 25.07C143.532 25.0367 143.369 24.9833 143.209 24.91C143.049 24.8367 142.895 24.7433 142.749 24.63C142.602 24.5167 142.475 24.38 142.369 24.22H142.349V27.88H141.689V20.32Z" fill="#5F5F5F"/>
<path d="M147.872 21.78C147.872 21.5733 147.865 21.3633 147.852 21.15C147.845 20.9367 147.839 20.66 147.832 20.32H148.482V21.19H148.502C148.549 21.0633 148.615 20.9433 148.702 20.83C148.789 20.71 148.892 20.6033 149.012 20.51C149.139 20.4167 149.282 20.3433 149.442 20.29C149.609 20.23 149.795 20.2 150.002 20.2C150.189 20.2 150.352 20.22 150.492 20.26L150.362 20.91C150.275 20.8767 150.149 20.86 149.982 20.86C149.729 20.86 149.512 20.91 149.332 21.01C149.152 21.1033 149.002 21.2267 148.882 21.38C148.762 21.5267 148.672 21.6867 148.612 21.86C148.559 22.0333 148.532 22.2 148.532 22.36V25H147.872V21.78Z" fill="#5F5F5F"/>
<path d="M154.957 22.66C154.957 22.4 154.913 22.1567 154.827 21.93C154.747 21.7033 154.63 21.5067 154.477 21.34C154.323 21.1733 154.137 21.0433 153.917 20.95C153.703 20.85 153.46 20.8 153.187 20.8C152.913 20.8 152.667 20.85 152.447 20.95C152.233 21.0433 152.05 21.1733 151.897 21.34C151.75 21.5067 151.633 21.7033 151.547 21.93C151.467 22.1567 151.427 22.4 151.427 22.66C151.427 22.92 151.467 23.1633 151.547 23.39C151.633 23.6167 151.75 23.8133 151.897 23.98C152.05 24.1467 152.233 24.28 152.447 24.38C152.667 24.4733 152.913 24.52 153.187 24.52C153.46 24.52 153.703 24.4733 153.917 24.38C154.137 24.28 154.323 24.1467 154.477 23.98C154.63 23.8133 154.747 23.6167 154.827 23.39C154.913 23.1633 154.957 22.92 154.957 22.66ZM155.677 22.66C155.677 23.0133 155.613 23.34 155.487 23.64C155.367 23.94 155.197 24.2 154.977 24.42C154.757 24.64 154.493 24.8133 154.187 24.94C153.887 25.06 153.553 25.12 153.187 25.12C152.827 25.12 152.493 25.06 152.187 24.94C151.887 24.8133 151.627 24.64 151.407 24.42C151.187 24.2 151.013 23.94 150.887 23.64C150.767 23.34 150.707 23.0133 150.707 22.66C150.707 22.3067 150.767 21.98 150.887 21.68C151.013 21.38 151.187 21.12 151.407 20.9C151.627 20.68 151.887 20.51 152.187 20.39C152.493 20.2633 152.827 20.2 153.187 20.2C153.553 20.2 153.887 20.2633 154.187 20.39C154.493 20.51 154.757 20.68 154.977 20.9C155.197 21.12 155.367 21.38 155.487 21.68C155.613 21.98 155.677 22.3067 155.677 22.66Z" fill="#5F5F5F"/>
<path d="M158.934 25H158.194L156.294 20.32H157.084L158.574 24.26H158.594L160.084 20.32H160.834L158.934 25Z" fill="#5F5F5F"/>
<path d="M162.659 18.52C162.659 18.66 162.609 18.7767 162.509 18.87C162.409 18.9567 162.299 19 162.179 19C162.059 19 161.949 18.9567 161.849 18.87C161.749 18.7767 161.699 18.66 161.699 18.52C161.699 18.38 161.749 18.2667 161.849 18.18C161.949 18.0867 162.059 18.04 162.179 18.04C162.299 18.04 162.409 18.0867 162.509 18.18C162.609 18.2667 162.659 18.38 162.659 18.52ZM162.509 25H161.849V20.32H162.509V25Z" fill="#5F5F5F"/>
<path d="M164.501 22.66C164.501 22.92 164.541 23.1633 164.621 23.39C164.708 23.6167 164.828 23.8133 164.981 23.98C165.134 24.1467 165.318 24.28 165.531 24.38C165.751 24.4733 165.998 24.52 166.271 24.52C166.538 24.52 166.784 24.4733 167.011 24.38C167.244 24.28 167.444 24.1467 167.611 23.98C167.778 23.8133 167.908 23.6167 168.001 23.39C168.094 23.1633 168.141 22.92 168.141 22.66C168.141 22.4 168.094 22.1567 168.001 21.93C167.908 21.7033 167.778 21.5067 167.611 21.34C167.444 21.1733 167.244 21.0433 167.011 20.95C166.784 20.85 166.538 20.8 166.271 20.8C165.998 20.8 165.751 20.85 165.531 20.95C165.318 21.0433 165.134 21.1733 164.981 21.34C164.828 21.5067 164.708 21.7033 164.621 21.93C164.541 22.1567 164.501 22.4 164.501 22.66ZM168.771 25H168.111V24.22H168.091C167.984 24.38 167.858 24.5167 167.711 24.63C167.564 24.7433 167.411 24.8367 167.251 24.91C167.091 24.9833 166.924 25.0367 166.751 25.07C166.584 25.1033 166.424 25.12 166.271 25.12C165.904 25.12 165.568 25.06 165.261 24.94C164.961 24.8133 164.701 24.64 164.481 24.42C164.261 24.2 164.088 23.94 163.961 23.64C163.841 23.34 163.781 23.0133 163.781 22.66C163.781 22.3067 163.841 21.98 163.961 21.68C164.088 21.38 164.261 21.12 164.481 20.9C164.701 20.68 164.961 20.51 165.261 20.39C165.568 20.2633 165.904 20.2 166.271 20.2C166.424 20.2 166.584 20.2167 166.751 20.25C166.924 20.2833 167.091 20.3367 167.251 20.41C167.411 20.4833 167.564 20.5767 167.711 20.69C167.858 20.8033 167.984 20.94 168.091 21.1H168.111V17.44H168.771V25Z" fill="#5F5F5F"/>
<path d="M173.854 22.3C173.854 21.8533 173.721 21.4933 173.454 21.22C173.187 20.94 172.814 20.8 172.334 20.8C172.121 20.8 171.914 20.8433 171.714 20.93C171.514 21.01 171.337 21.12 171.184 21.26C171.037 21.4 170.917 21.56 170.824 21.74C170.737 21.92 170.694 22.1067 170.694 22.3H173.854ZM170.674 22.84C170.694 23.0733 170.751 23.2933 170.844 23.5C170.937 23.7067 171.061 23.8867 171.214 24.04C171.367 24.1867 171.544 24.3033 171.744 24.39C171.944 24.4767 172.161 24.52 172.394 24.52C172.747 24.52 173.051 24.44 173.304 24.28C173.564 24.1133 173.761 23.9233 173.894 23.71L174.404 24.13C174.124 24.4833 173.814 24.7367 173.474 24.89C173.141 25.0433 172.781 25.12 172.394 25.12C172.047 25.12 171.724 25.06 171.424 24.94C171.131 24.8133 170.877 24.64 170.664 24.42C170.451 24.2 170.281 23.94 170.154 23.64C170.034 23.34 169.974 23.0133 169.974 22.66C169.974 22.3067 170.034 21.98 170.154 21.68C170.274 21.38 170.441 21.12 170.654 20.9C170.867 20.68 171.117 20.51 171.404 20.39C171.691 20.2633 172.001 20.2 172.334 20.2C172.687 20.2 173.004 20.2633 173.284 20.39C173.564 20.5167 173.797 20.6867 173.984 20.9C174.177 21.1067 174.324 21.3533 174.424 21.64C174.524 21.92 174.574 22.22 174.574 22.54V22.84H170.674Z" fill="#5F5F5F"/>
<path d="M181.214 22.67C181.047 22.67 180.837 22.68 180.584 22.7C180.337 22.7133 180.097 22.7533 179.864 22.82C179.637 22.88 179.441 22.9767 179.274 23.11C179.114 23.2433 179.034 23.4267 179.034 23.66C179.034 23.8133 179.064 23.9467 179.124 24.06C179.191 24.1667 179.277 24.2567 179.384 24.33C179.491 24.3967 179.607 24.4467 179.734 24.48C179.867 24.5067 180.001 24.52 180.134 24.52C180.374 24.52 180.581 24.48 180.754 24.4C180.934 24.32 181.084 24.2133 181.204 24.08C181.324 23.94 181.411 23.78 181.464 23.6C181.524 23.4133 181.554 23.2167 181.554 23.01V22.67H181.214ZM181.554 22.13V22.01C181.554 21.2033 181.154 20.8 180.354 20.8C179.807 20.8 179.331 20.9833 178.924 21.35L178.524 20.88C178.964 20.4267 179.624 20.2 180.504 20.2C180.731 20.2 180.947 20.2333 181.154 20.3C181.367 20.3667 181.551 20.47 181.704 20.61C181.857 20.7433 181.981 20.9133 182.074 21.12C182.167 21.3267 182.214 21.5733 182.214 21.86V23.95C182.214 24.13 182.221 24.32 182.234 24.52C182.254 24.7133 182.274 24.8733 182.294 25H181.654C181.634 24.8867 181.617 24.7633 181.604 24.63C181.597 24.4967 181.594 24.3667 181.594 24.24H181.574C181.381 24.5533 181.151 24.78 180.884 24.92C180.624 25.0533 180.304 25.12 179.924 25.12C179.717 25.12 179.517 25.09 179.324 25.03C179.131 24.9767 178.957 24.8933 178.804 24.78C178.657 24.66 178.537 24.5167 178.444 24.35C178.357 24.1767 178.314 23.9767 178.314 23.75C178.314 23.37 178.411 23.0733 178.604 22.86C178.804 22.64 179.051 22.4767 179.344 22.37C179.644 22.2633 179.961 22.1967 180.294 22.17C180.634 22.1433 180.944 22.13 181.224 22.13H181.554Z" fill="#5F5F5F"/>
<path d="M189.003 21.43C188.903 21.2367 188.769 21.0833 188.603 20.97C188.436 20.8567 188.233 20.8 187.993 20.8C187.879 20.8 187.763 20.8133 187.643 20.84C187.529 20.8667 187.426 20.91 187.333 20.97C187.239 21.0233 187.163 21.0933 187.103 21.18C187.049 21.2667 187.023 21.3733 187.023 21.5C187.023 21.72 187.099 21.88 187.253 21.98C187.406 22.08 187.636 22.1667 187.943 22.24L188.613 22.4C188.939 22.4733 189.209 22.6233 189.423 22.85C189.643 23.07 189.753 23.3467 189.753 23.68C189.753 23.9333 189.699 24.1533 189.593 24.34C189.493 24.52 189.356 24.67 189.183 24.79C189.016 24.9033 188.823 24.9867 188.603 25.04C188.383 25.0933 188.159 25.12 187.933 25.12C187.573 25.12 187.236 25.0533 186.923 24.92C186.616 24.78 186.353 24.5433 186.133 24.21L186.703 23.82C186.836 24.0333 187.003 24.2033 187.203 24.33C187.409 24.4567 187.653 24.52 187.933 24.52C188.066 24.52 188.199 24.5067 188.333 24.48C188.466 24.4467 188.583 24.4 188.683 24.34C188.789 24.2733 188.873 24.19 188.933 24.09C188.999 23.99 189.033 23.8733 189.033 23.74C189.033 23.5067 188.946 23.34 188.773 23.24C188.599 23.1333 188.389 23.05 188.143 22.99L187.503 22.84C187.423 22.82 187.313 22.7867 187.173 22.74C187.039 22.6933 186.906 22.6233 186.773 22.53C186.646 22.4367 186.536 22.3167 186.443 22.17C186.349 22.0167 186.303 21.83 186.303 21.61C186.303 21.37 186.349 21.16 186.443 20.98C186.543 20.8 186.673 20.6533 186.833 20.54C186.999 20.4267 187.186 20.3433 187.393 20.29C187.599 20.23 187.813 20.2 188.033 20.2C188.359 20.2 188.663 20.2633 188.943 20.39C189.223 20.5167 189.439 20.7333 189.593 21.04L189.003 21.43Z" fill="#5F5F5F"/>
<path d="M190.781 21.36C190.781 21.1867 190.774 21.0133 190.761 20.84C190.754 20.6667 190.744 20.4933 190.731 20.32H191.441V21.03H191.461C191.621 20.7567 191.841 20.55 192.121 20.41C192.407 20.27 192.691 20.2 192.971 20.2C193.097 20.2 193.231 20.2133 193.371 20.24C193.517 20.2667 193.657 20.3167 193.791 20.39C193.924 20.4567 194.047 20.5533 194.161 20.68C194.281 20.8067 194.381 20.97 194.461 21.17C194.594 20.87 194.804 20.6333 195.091 20.46C195.384 20.2867 195.687 20.2 196.001 20.2C196.601 20.2 197.044 20.36 197.331 20.68C197.617 20.9933 197.761 21.4433 197.761 22.03V25H197.101V22.27C197.101 21.7967 197.017 21.4333 196.851 21.18C196.684 20.9267 196.374 20.8 195.921 20.8C195.674 20.8 195.467 20.85 195.301 20.95C195.134 21.0433 194.997 21.17 194.891 21.33C194.791 21.49 194.717 21.6733 194.671 21.88C194.624 22.08 194.601 22.29 194.601 22.51V25H193.941V22.27C193.941 21.7967 193.857 21.4333 193.691 21.18C193.524 20.9267 193.214 20.8 192.761 20.8C192.721 20.8 192.627 20.8133 192.481 20.84C192.341 20.8667 192.194 20.94 192.041 21.06C191.887 21.18 191.747 21.36 191.621 21.6C191.501 21.84 191.441 22.1733 191.441 22.6V25H190.781V21.36Z" fill="#5F5F5F"/>
<path d="M201.956 22.67C201.79 22.67 201.58 22.68 201.326 22.7C201.08 22.7133 200.84 22.7533 200.606 22.82C200.38 22.88 200.183 22.9767 200.016 23.11C199.856 23.2433 199.776 23.4267 199.776 23.66C199.776 23.8133 199.806 23.9467 199.866 24.06C199.933 24.1667 200.02 24.2567 200.126 24.33C200.233 24.3967 200.349 24.4467 200.476 24.48C200.609 24.5067 200.743 24.52 200.876 24.52C201.116 24.52 201.323 24.48 201.496 24.4C201.676 24.32 201.826 24.2133 201.946 24.08C202.066 23.94 202.153 23.78 202.206 23.6C202.266 23.4133 202.296 23.2167 202.296 23.01V22.67H201.956ZM202.296 22.13V22.01C202.296 21.2033 201.896 20.8 201.096 20.8C200.55 20.8 200.073 20.9833 199.666 21.35L199.266 20.88C199.706 20.4267 200.366 20.2 201.246 20.2C201.473 20.2 201.69 20.2333 201.896 20.3C202.11 20.3667 202.293 20.47 202.446 20.61C202.6 20.7433 202.723 20.9133 202.816 21.12C202.91 21.3267 202.956 21.5733 202.956 21.86V23.95C202.956 24.13 202.963 24.32 202.976 24.52C202.996 24.7133 203.016 24.8733 203.036 25H202.396C202.376 24.8867 202.36 24.7633 202.346 24.63C202.34 24.4967 202.336 24.3667 202.336 24.24H202.316C202.123 24.5533 201.893 24.78 201.626 24.92C201.366 25.0533 201.046 25.12 200.666 25.12C200.46 25.12 200.26 25.09 200.066 25.03C199.873 24.9767 199.7 24.8933 199.546 24.78C199.4 24.66 199.28 24.5167 199.186 24.35C199.1 24.1767 199.056 23.9767 199.056 23.75C199.056 23.37 199.153 23.0733 199.346 22.86C199.546 22.64 199.793 22.4767 200.086 22.37C200.386 22.2633 200.703 22.1967 201.036 22.17C201.376 22.1433 201.686 22.13 201.966 22.13H202.296Z" fill="#5F5F5F"/>
<path d="M204.552 21.78C204.552 21.5733 204.545 21.3633 204.532 21.15C204.525 20.9367 204.518 20.66 204.512 20.32H205.162V21.19H205.182C205.228 21.0633 205.295 20.9433 205.382 20.83C205.468 20.71 205.572 20.6033 205.692 20.51C205.818 20.4167 205.962 20.3433 206.122 20.29C206.288 20.23 206.475 20.2 206.682 20.2C206.868 20.2 207.032 20.22 207.172 20.26L207.042 20.91C206.955 20.8767 206.828 20.86 206.662 20.86C206.408 20.86 206.192 20.91 206.012 21.01C205.832 21.1033 205.682 21.2267 205.562 21.38C205.442 21.5267 205.352 21.6867 205.292 21.86C205.238 22.0333 205.212 22.2 205.212 22.36V25H204.552V21.78Z" fill="#5F5F5F"/>
<path d="M210.222 20.92H208.872V23.68C208.872 23.8533 208.889 23.9967 208.922 24.11C208.955 24.2167 209.002 24.3 209.062 24.36C209.122 24.42 209.192 24.4633 209.272 24.49C209.359 24.51 209.452 24.52 209.552 24.52C209.665 24.52 209.782 24.5033 209.902 24.47C210.022 24.4367 210.132 24.3933 210.232 24.34L210.262 24.95C210.015 25.0633 209.719 25.12 209.372 25.12C209.245 25.12 209.112 25.1033 208.972 25.07C208.839 25.0367 208.715 24.9733 208.602 24.88C208.489 24.7867 208.395 24.66 208.322 24.5C208.249 24.34 208.212 24.13 208.212 23.87V20.92H207.222V20.32H208.212V19H208.872V20.32H210.222V20.92Z" fill="#5F5F5F"/>
<path d="M217.316 21.42C217.202 21.2467 217.042 21.1 216.836 20.98C216.636 20.86 216.406 20.8 216.146 20.8C215.872 20.7933 215.626 20.8367 215.406 20.93C215.192 21.0233 215.009 21.1533 214.856 21.32C214.702 21.4867 214.586 21.6867 214.506 21.92C214.426 22.1467 214.386 22.3933 214.386 22.66C214.386 22.9267 214.426 23.1767 214.506 23.41C214.586 23.6367 214.702 23.8333 214.856 24C215.009 24.1667 215.192 24.2967 215.406 24.39C215.626 24.4833 215.872 24.5267 216.146 24.52C216.406 24.52 216.636 24.46 216.836 24.34C217.042 24.22 217.202 24.0733 217.316 23.9L217.856 24.31C217.622 24.5833 217.359 24.7867 217.066 24.92C216.772 25.0467 216.466 25.1133 216.146 25.12C215.766 25.1267 215.422 25.07 215.116 24.95C214.809 24.8233 214.546 24.65 214.326 24.43C214.112 24.21 213.949 23.95 213.836 23.65C213.722 23.3433 213.666 23.0133 213.666 22.66C213.666 22.3067 213.722 21.98 213.836 21.68C213.949 21.3733 214.112 21.11 214.326 20.89C214.546 20.67 214.809 20.5 215.116 20.38C215.422 20.2533 215.766 20.1933 216.146 20.2C216.466 20.2067 216.772 20.2767 217.066 20.41C217.359 20.5367 217.622 20.7367 217.856 21.01L217.316 21.42Z" fill="#5F5F5F"/>
<path d="M222.74 22.66C222.74 22.4 222.696 22.1567 222.61 21.93C222.53 21.7033 222.413 21.5067 222.26 21.34C222.106 21.1733 221.92 21.0433 221.7 20.95C221.486 20.85 221.243 20.8 220.97 20.8C220.696 20.8 220.45 20.85 220.23 20.95C220.016 21.0433 219.833 21.1733 219.68 21.34C219.533 21.5067 219.416 21.7033 219.33 21.93C219.25 22.1567 219.21 22.4 219.21 22.66C219.21 22.92 219.25 23.1633 219.33 23.39C219.416 23.6167 219.533 23.8133 219.68 23.98C219.833 24.1467 220.016 24.28 220.23 24.38C220.45 24.4733 220.696 24.52 220.97 24.52C221.243 24.52 221.486 24.4733 221.7 24.38C221.92 24.28 222.106 24.1467 222.26 23.98C222.413 23.8133 222.53 23.6167 222.61 23.39C222.696 23.1633 222.74 22.92 222.74 22.66ZM223.46 22.66C223.46 23.0133 223.396 23.34 223.27 23.64C223.15 23.94 222.98 24.2 222.76 24.42C222.54 24.64 222.276 24.8133 221.97 24.94C221.67 25.06 221.336 25.12 220.97 25.12C220.61 25.12 220.276 25.06 219.97 24.94C219.67 24.8133 219.41 24.64 219.19 24.42C218.97 24.2 218.796 23.94 218.67 23.64C218.55 23.34 218.49 23.0133 218.49 22.66C218.49 22.3067 218.55 21.98 218.67 21.68C218.796 21.38 218.97 21.12 219.19 20.9C219.41 20.68 219.67 20.51 219.97 20.39C220.276 20.2633 220.61 20.2 220.97 20.2C221.336 20.2 221.67 20.2633 221.97 20.39C222.276 20.51 222.54 20.68 222.76 20.9C222.98 21.12 223.15 21.38 223.27 21.68C223.396 21.98 223.46 22.3067 223.46 22.66Z" fill="#5F5F5F"/>
<path d="M225.288 20.32C225.301 20.4467 225.307 20.5733 225.307 20.7C225.314 20.82 225.318 20.9433 225.318 21.07H225.337C225.411 20.9433 225.504 20.8267 225.617 20.72C225.731 20.6133 225.857 20.5233 225.997 20.45C226.137 20.37 226.284 20.31 226.438 20.27C226.598 20.2233 226.754 20.2 226.908 20.2C227.508 20.2 227.951 20.36 228.238 20.68C228.524 20.9933 228.667 21.4433 228.667 22.03V25H228.008V22.41C228.008 21.89 227.918 21.4933 227.738 21.22C227.558 20.94 227.224 20.8 226.738 20.8C226.704 20.8 226.611 20.8133 226.458 20.84C226.304 20.8667 226.141 20.94 225.967 21.06C225.801 21.18 225.651 21.36 225.518 21.6C225.384 21.84 225.318 22.1733 225.318 22.6V25H224.658V21.35C224.658 21.2233 224.651 21.0633 224.637 20.87C224.631 20.6767 224.621 20.4933 224.607 20.32H225.288Z" fill="#5F5F5F"/>
<path d="M232.634 20.92H231.284V23.68C231.284 23.8533 231.301 23.9967 231.334 24.11C231.367 24.2167 231.414 24.3 231.474 24.36C231.534 24.42 231.604 24.4633 231.684 24.49C231.771 24.51 231.864 24.52 231.964 24.52C232.077 24.52 232.194 24.5033 232.314 24.47C232.434 24.4367 232.544 24.3933 232.644 24.34L232.674 24.95C232.427 25.0633 232.131 25.12 231.784 25.12C231.657 25.12 231.524 25.1033 231.384 25.07C231.251 25.0367 231.127 24.9733 231.014 24.88C230.901 24.7867 230.807 24.66 230.734 24.5C230.661 24.34 230.624 24.13 230.624 23.87V20.92H229.634V20.32H230.624V19H231.284V20.32H232.634V20.92Z" fill="#5F5F5F"/>
<path d="M233.604 21.78C233.604 21.5733 233.598 21.3633 233.584 21.15C233.578 20.9367 233.571 20.66 233.564 20.32H234.214V21.19H234.234C234.281 21.0633 234.348 20.9433 234.434 20.83C234.521 20.71 234.624 20.6033 234.744 20.51C234.871 20.4167 235.014 20.3433 235.174 20.29C235.341 20.23 235.528 20.2 235.734 20.2C235.921 20.2 236.084 20.22 236.224 20.26L236.094 20.91C236.008 20.8767 235.881 20.86 235.714 20.86C235.461 20.86 235.244 20.91 235.064 21.01C234.884 21.1033 234.734 21.2267 234.614 21.38C234.494 21.5267 234.404 21.6867 234.344 21.86C234.291 22.0333 234.264 22.2 234.264 22.36V25H233.604V21.78Z" fill="#5F5F5F"/>
<path d="M239.515 22.67C239.348 22.67 239.138 22.68 238.885 22.7C238.638 22.7133 238.398 22.7533 238.165 22.82C237.938 22.88 237.741 22.9767 237.575 23.11C237.415 23.2433 237.335 23.4267 237.335 23.66C237.335 23.8133 237.365 23.9467 237.425 24.06C237.491 24.1667 237.578 24.2567 237.685 24.33C237.791 24.3967 237.908 24.4467 238.035 24.48C238.168 24.5067 238.301 24.52 238.435 24.52C238.675 24.52 238.881 24.48 239.055 24.4C239.235 24.32 239.385 24.2133 239.505 24.08C239.625 23.94 239.711 23.78 239.765 23.6C239.825 23.4133 239.855 23.2167 239.855 23.01V22.67H239.515ZM239.855 22.13V22.01C239.855 21.2033 239.455 20.8 238.655 20.8C238.108 20.8 237.631 20.9833 237.225 21.35L236.825 20.88C237.265 20.4267 237.925 20.2 238.805 20.2C239.031 20.2 239.248 20.2333 239.455 20.3C239.668 20.3667 239.851 20.47 240.005 20.61C240.158 20.7433 240.281 20.9133 240.375 21.12C240.468 21.3267 240.515 21.5733 240.515 21.86V23.95C240.515 24.13 240.521 24.32 240.535 24.52C240.555 24.7133 240.575 24.8733 240.595 25H239.955C239.935 24.8867 239.918 24.7633 239.905 24.63C239.898 24.4967 239.895 24.3667 239.895 24.24H239.875C239.681 24.5533 239.451 24.78 239.185 24.92C238.925 25.0533 238.605 25.12 238.225 25.12C238.018 25.12 237.818 25.09 237.625 25.03C237.431 24.9767 237.258 24.8933 237.105 24.78C236.958 24.66 236.838 24.5167 236.745 24.35C236.658 24.1767 236.615 23.9767 236.615 23.75C236.615 23.37 236.711 23.0733 236.905 22.86C237.105 22.64 237.351 22.4767 237.645 22.37C237.945 22.2633 238.261 22.1967 238.595 22.17C238.935 22.1433 239.245 22.13 239.525 22.13H239.855Z" fill="#5F5F5F"/>
<path d="M245.45 21.42C245.337 21.2467 245.177 21.1 244.97 20.98C244.77 20.86 244.54 20.8 244.28 20.8C244.007 20.7933 243.76 20.8367 243.54 20.93C243.327 21.0233 243.144 21.1533 242.99 21.32C242.837 21.4867 242.72 21.6867 242.64 21.92C242.56 22.1467 242.52 22.3933 242.52 22.66C242.52 22.9267 242.56 23.1767 242.64 23.41C242.72 23.6367 242.837 23.8333 242.99 24C243.144 24.1667 243.327 24.2967 243.54 24.39C243.76 24.4833 244.007 24.5267 244.28 24.52C244.54 24.52 244.77 24.46 244.97 24.34C245.177 24.22 245.337 24.0733 245.45 23.9L245.99 24.31C245.757 24.5833 245.494 24.7867 245.2 24.92C244.907 25.0467 244.6 25.1133 244.28 25.12C243.9 25.1267 243.557 25.07 243.25 24.95C242.944 24.8233 242.68 24.65 242.46 24.43C242.247 24.21 242.084 23.95 241.97 23.65C241.857 23.3433 241.8 23.0133 241.8 22.66C241.8 22.3067 241.857 21.98 241.97 21.68C242.084 21.3733 242.247 21.11 242.46 20.89C242.68 20.67 242.944 20.5 243.25 20.38C243.557 20.2533 243.9 20.1933 244.28 20.2C244.6 20.2067 244.907 20.2767 245.2 20.41C245.494 20.5367 245.757 20.7367 245.99 21.01L245.45 21.42Z" fill="#5F5F5F"/>
<path d="M249.285 20.92H247.935V23.68C247.935 23.8533 247.951 23.9967 247.985 24.11C248.018 24.2167 248.065 24.3 248.125 24.36C248.185 24.42 248.255 24.4633 248.335 24.49C248.421 24.51 248.515 24.52 248.615 24.52C248.728 24.52 248.845 24.5033 248.965 24.47C249.085 24.4367 249.195 24.3933 249.295 24.34L249.325 24.95C249.078 25.0633 248.781 25.12 248.435 25.12C248.308 25.12 248.175 25.1033 248.035 25.07C247.901 25.0367 247.778 24.9733 247.665 24.88C247.551 24.7867 247.458 24.66 247.385 24.5C247.311 24.34 247.275 24.13 247.275 23.87V20.92H246.285V20.32H247.275V19H247.935V20.32H249.285V20.92Z" fill="#5F5F5F"/>
<path d="M255.628 22.67C255.461 22.67 255.251 22.68 254.998 22.7C254.751 22.7133 254.511 22.7533 254.278 22.82C254.051 22.88 253.855 22.9767 253.688 23.11C253.528 23.2433 253.448 23.4267 253.448 23.66C253.448 23.8133 253.478 23.9467 253.538 24.06C253.605 24.1667 253.691 24.2567 253.798 24.33C253.905 24.3967 254.021 24.4467 254.148 24.48C254.281 24.5067 254.415 24.52 254.548 24.52C254.788 24.52 254.995 24.48 255.168 24.4C255.348 24.32 255.498 24.2133 255.618 24.08C255.738 23.94 255.825 23.78 255.878 23.6C255.938 23.4133 255.968 23.2167 255.968 23.01V22.67H255.628ZM255.968 22.13V22.01C255.968 21.2033 255.568 20.8 254.768 20.8C254.221 20.8 253.745 20.9833 253.338 21.35L252.938 20.88C253.378 20.4267 254.038 20.2 254.918 20.2C255.145 20.2 255.361 20.2333 255.568 20.3C255.781 20.3667 255.965 20.47 256.118 20.61C256.271 20.7433 256.395 20.9133 256.488 21.12C256.581 21.3267 256.628 21.5733 256.628 21.86V23.95C256.628 24.13 256.635 24.32 256.648 24.52C256.668 24.7133 256.688 24.8733 256.708 25H256.068C256.048 24.8867 256.031 24.7633 256.018 24.63C256.011 24.4967 256.008 24.3667 256.008 24.24H255.988C255.795 24.5533 255.565 24.78 255.298 24.92C255.038 25.0533 254.718 25.12 254.338 25.12C254.131 25.12 253.931 25.09 253.738 25.03C253.545 24.9767 253.371 24.8933 253.218 24.78C253.071 24.66 252.951 24.5167 252.858 24.35C252.771 24.1767 252.728 23.9767 252.728 23.75C252.728 23.37 252.825 23.0733 253.018 22.86C253.218 22.64 253.465 22.4767 253.758 22.37C254.058 22.2633 254.375 22.1967 254.708 22.17C255.048 22.1433 255.358 22.13 255.638 22.13H255.968Z" fill="#5F5F5F"/>
<path d="M260.634 21.43C260.534 21.2367 260.4 21.0833 260.234 20.97C260.067 20.8567 259.864 20.8 259.624 20.8C259.51 20.8 259.394 20.8133 259.274 20.84C259.16 20.8667 259.057 20.91 258.964 20.97C258.87 21.0233 258.794 21.0933 258.734 21.18C258.68 21.2667 258.654 21.3733 258.654 21.5C258.654 21.72 258.73 21.88 258.884 21.98C259.037 22.08 259.267 22.1667 259.574 22.24L260.244 22.4C260.57 22.4733 260.84 22.6233 261.054 22.85C261.274 23.07 261.384 23.3467 261.384 23.68C261.384 23.9333 261.33 24.1533 261.224 24.34C261.124 24.52 260.987 24.67 260.814 24.79C260.647 24.9033 260.454 24.9867 260.234 25.04C260.014 25.0933 259.79 25.12 259.564 25.12C259.204 25.12 258.867 25.0533 258.554 24.92C258.247 24.78 257.984 24.5433 257.764 24.21L258.334 23.82C258.467 24.0333 258.634 24.2033 258.834 24.33C259.04 24.4567 259.284 24.52 259.564 24.52C259.697 24.52 259.83 24.5067 259.964 24.48C260.097 24.4467 260.214 24.4 260.314 24.34C260.42 24.2733 260.504 24.19 260.564 24.09C260.63 23.99 260.664 23.8733 260.664 23.74C260.664 23.5067 260.577 23.34 260.404 23.24C260.23 23.1333 260.02 23.05 259.774 22.99L259.134 22.84C259.054 22.82 258.944 22.7867 258.804 22.74C258.67 22.6933 258.537 22.6233 258.404 22.53C258.277 22.4367 258.167 22.3167 258.074 22.17C257.98 22.0167 257.934 21.83 257.934 21.61C257.934 21.37 257.98 21.16 258.074 20.98C258.174 20.8 258.304 20.6533 258.464 20.54C258.63 20.4267 258.817 20.3433 259.024 20.29C259.23 20.23 259.444 20.2 259.664 20.2C259.99 20.2 260.294 20.2633 260.574 20.39C260.854 20.5167 261.07 20.7333 261.224 21.04L260.634 21.43Z" fill="#5F5F5F"/>
<path d="M266.935 24.19L268.365 20.32H269.165L266.825 26.22C266.685 26.58 266.505 26.8667 266.285 27.08C266.071 27.2933 265.761 27.4 265.355 27.4C265.255 27.4 265.151 27.3967 265.045 27.39C264.945 27.3833 264.845 27.3633 264.745 27.33L264.815 26.69C264.955 26.7633 265.121 26.8 265.315 26.8C265.548 26.8 265.731 26.7267 265.865 26.58C265.998 26.4333 266.115 26.2267 266.215 25.96L266.555 25.06L264.635 20.32H265.465L266.935 24.19Z" fill="#5F5F5F"/>
<path d="M274.029 22.66C274.029 22.4 273.986 22.1567 273.899 21.93C273.819 21.7033 273.702 21.5067 273.549 21.34C273.395 21.1733 273.209 21.0433 272.989 20.95C272.775 20.85 272.532 20.8 272.259 20.8C271.985 20.8 271.739 20.85 271.519 20.95C271.305 21.0433 271.122 21.1733 270.969 21.34C270.822 21.5067 270.706 21.7033 270.619 21.93C270.539 22.1567 270.499 22.4 270.499 22.66C270.499 22.92 270.539 23.1633 270.619 23.39C270.706 23.6167 270.822 23.8133 270.969 23.98C271.122 24.1467 271.305 24.28 271.519 24.38C271.739 24.4733 271.985 24.52 272.259 24.52C272.532 24.52 272.775 24.4733 272.989 24.38C273.209 24.28 273.395 24.1467 273.549 23.98C273.702 23.8133 273.819 23.6167 273.899 23.39C273.986 23.1633 274.029 22.92 274.029 22.66ZM274.749 22.66C274.749 23.0133 274.686 23.34 274.559 23.64C274.439 23.94 274.269 24.2 274.049 24.42C273.829 24.64 273.565 24.8133 273.259 24.94C272.959 25.06 272.625 25.12 272.259 25.12C271.899 25.12 271.565 25.06 271.259 24.94C270.959 24.8133 270.699 24.64 270.479 24.42C270.259 24.2 270.085 23.94 269.959 23.64C269.839 23.34 269.779 23.0133 269.779 22.66C269.779 22.3067 269.839 21.98 269.959 21.68C270.085 21.38 270.259 21.12 270.479 20.9C270.699 20.68 270.959 20.51 271.259 20.39C271.565 20.2633 271.899 20.2 272.259 20.2C272.625 20.2 272.959 20.2633 273.259 20.39C273.565 20.51 273.829 20.68 274.049 20.9C274.269 21.12 274.439 21.38 274.559 21.68C274.686 21.98 274.749 22.3067 274.749 22.66Z" fill="#5F5F5F"/>
<path d="M279.327 25C279.313 24.8733 279.303 24.75 279.297 24.63C279.297 24.5033 279.297 24.3767 279.297 24.25H279.277C279.203 24.3767 279.11 24.4933 278.997 24.6C278.883 24.7067 278.757 24.8 278.617 24.88C278.477 24.9533 278.327 25.01 278.167 25.05C278.013 25.0967 277.86 25.12 277.707 25.12C277.107 25.12 276.663 24.9633 276.377 24.65C276.09 24.33 275.947 23.8767 275.947 23.29V20.32H276.607V22.91C276.607 23.17 276.627 23.4 276.667 23.6C276.707 23.8 276.773 23.97 276.867 24.11C276.967 24.2433 277.097 24.3467 277.257 24.42C277.423 24.4867 277.63 24.52 277.877 24.52C277.91 24.52 278.003 24.5067 278.157 24.48C278.31 24.4533 278.47 24.38 278.637 24.26C278.81 24.14 278.963 23.96 279.097 23.72C279.23 23.48 279.297 23.1467 279.297 22.72V20.32H279.957V23.97C279.957 24.0967 279.96 24.2567 279.967 24.45C279.98 24.6433 279.993 24.8267 280.007 25H279.327Z" fill="#5F5F5F"/>
<path d="M281.573 21.78C281.573 21.5733 281.567 21.3633 281.553 21.15C281.547 20.9367 281.54 20.66 281.533 20.32H282.183V21.19H282.203C282.25 21.0633 282.317 20.9433 282.403 20.83C282.49 20.71 282.593 20.6033 282.713 20.51C282.84 20.4167 282.983 20.3433 283.143 20.29C283.31 20.23 283.497 20.2 283.703 20.2C283.89 20.2 284.053 20.22 284.193 20.26L284.063 20.91C283.977 20.8767 283.85 20.86 283.683 20.86C283.43 20.86 283.213 20.91 283.033 21.01C282.853 21.1033 282.703 21.2267 282.583 21.38C282.463 21.5267 282.373 21.6867 282.313 21.86C282.26 22.0333 282.233 22.2 282.233 22.36V25H281.573V21.78Z" fill="#5F5F5F"/>
<path d="M288.567 24.34H292.357V25H287.847V17.92H292.237V18.58H288.567V20.99H291.997V21.65H288.567V24.34Z" fill="#5F5F5F"/>
<path d="M295.954 20.92H294.604V23.68C294.604 23.8533 294.621 23.9967 294.654 24.11C294.688 24.2167 294.734 24.3 294.794 24.36C294.854 24.42 294.924 24.4633 295.004 24.49C295.091 24.51 295.184 24.52 295.284 24.52C295.398 24.52 295.514 24.5033 295.634 24.47C295.754 24.4367 295.864 24.3933 295.964 24.34L295.994 24.95C295.748 25.0633 295.451 25.12 295.104 25.12C294.978 25.12 294.844 25.1033 294.704 25.07C294.571 25.0367 294.448 24.9733 294.334 24.88C294.221 24.7867 294.128 24.66 294.054 24.5C293.981 24.34 293.944 24.13 293.944 23.87V20.92H292.954V20.32H293.944V19H294.604V20.32H295.954V20.92Z" fill="#5F5F5F"/>
<path d="M296.855 17.44H297.515V21.07H297.535C297.608 20.9433 297.701 20.8267 297.815 20.72C297.928 20.6133 298.055 20.5233 298.195 20.45C298.335 20.37 298.481 20.31 298.635 20.27C298.795 20.2233 298.951 20.2 299.105 20.2C299.705 20.2 300.148 20.36 300.435 20.68C300.721 20.9933 300.865 21.4433 300.865 22.03V25H300.205V22.41C300.205 21.89 300.115 21.4933 299.935 21.22C299.755 20.94 299.421 20.8 298.935 20.8C298.901 20.8 298.808 20.8133 298.655 20.84C298.501 20.8667 298.338 20.94 298.165 21.06C297.998 21.18 297.848 21.36 297.715 21.6C297.581 21.84 297.515 22.1733 297.515 22.6V25H296.855V17.44Z" fill="#5F5F5F"/>
<path d="M306.051 22.3C306.051 21.8533 305.918 21.4933 305.651 21.22C305.385 20.94 305.011 20.8 304.531 20.8C304.318 20.8 304.111 20.8433 303.911 20.93C303.711 21.01 303.535 21.12 303.381 21.26C303.235 21.4 303.115 21.56 303.021 21.74C302.935 21.92 302.891 22.1067 302.891 22.3H306.051ZM302.871 22.84C302.891 23.0733 302.948 23.2933 303.041 23.5C303.135 23.7067 303.258 23.8867 303.411 24.04C303.565 24.1867 303.741 24.3033 303.941 24.39C304.141 24.4767 304.358 24.52 304.591 24.52C304.945 24.52 305.248 24.44 305.501 24.28C305.761 24.1133 305.958 23.9233 306.091 23.71L306.601 24.13C306.321 24.4833 306.011 24.7367 305.671 24.89C305.338 25.0433 304.978 25.12 304.591 25.12C304.245 25.12 303.921 25.06 303.621 24.94C303.328 24.8133 303.075 24.64 302.861 24.42C302.648 24.2 302.478 23.94 302.351 23.64C302.231 23.34 302.171 23.0133 302.171 22.66C302.171 22.3067 302.231 21.98 302.351 21.68C302.471 21.38 302.638 21.12 302.851 20.9C303.065 20.68 303.315 20.51 303.601 20.39C303.888 20.2633 304.198 20.2 304.531 20.2C304.885 20.2 305.201 20.2633 305.481 20.39C305.761 20.5167 305.995 20.6867 306.181 20.9C306.375 21.1067 306.521 21.3533 306.621 21.64C306.721 21.92 306.771 22.22 306.771 22.54V22.84H302.871Z" fill="#5F5F5F"/>
<path d="M308.038 21.78C308.038 21.5733 308.031 21.3633 308.018 21.15C308.011 20.9367 308.005 20.66 307.998 20.32H308.648V21.19H308.668C308.715 21.0633 308.781 20.9433 308.868 20.83C308.955 20.71 309.058 20.6033 309.178 20.51C309.305 20.4167 309.448 20.3433 309.608 20.29C309.775 20.23 309.961 20.2 310.168 20.2C310.355 20.2 310.518 20.22 310.658 20.26L310.528 20.91C310.441 20.8767 310.315 20.86 310.148 20.86C309.895 20.86 309.678 20.91 309.498 21.01C309.318 21.1033 309.168 21.2267 309.048 21.38C308.928 21.5267 308.838 21.6867 308.778 21.86C308.725 22.0333 308.698 22.2 308.698 22.36V25H308.038V21.78Z" fill="#5F5F5F"/>
<path d="M314.753 22.3C314.753 21.8533 314.619 21.4933 314.353 21.22C314.086 20.94 313.713 20.8 313.233 20.8C313.019 20.8 312.813 20.8433 312.613 20.93C312.413 21.01 312.236 21.12 312.083 21.26C311.936 21.4 311.816 21.56 311.723 21.74C311.636 21.92 311.593 22.1067 311.593 22.3H314.753ZM311.573 22.84C311.593 23.0733 311.649 23.2933 311.743 23.5C311.836 23.7067 311.959 23.8867 312.113 24.04C312.266 24.1867 312.443 24.3033 312.643 24.39C312.843 24.4767 313.059 24.52 313.293 24.52C313.646 24.52 313.949 24.44 314.203 24.28C314.463 24.1133 314.659 23.9233 314.793 23.71L315.303 24.13C315.023 24.4833 314.713 24.7367 314.373 24.89C314.039 25.0433 313.679 25.12 313.293 25.12C312.946 25.12 312.623 25.06 312.323 24.94C312.029 24.8133 311.776 24.64 311.563 24.42C311.349 24.2 311.179 23.94 311.053 23.64C310.933 23.34 310.873 23.0133 310.873 22.66C310.873 22.3067 310.933 21.98 311.053 21.68C311.173 21.38 311.339 21.12 311.553 20.9C311.766 20.68 312.016 20.51 312.303 20.39C312.589 20.2633 312.899 20.2 313.233 20.2C313.586 20.2 313.903 20.2633 314.183 20.39C314.463 20.5167 314.696 20.6867 314.883 20.9C315.076 21.1067 315.223 21.3533 315.323 21.64C315.423 21.92 315.473 22.22 315.473 22.54V22.84H311.573Z" fill="#5F5F5F"/>
<path d="M320.049 25C320.036 24.8733 320.026 24.75 320.019 24.63C320.019 24.5033 320.019 24.3767 320.019 24.25H319.999C319.926 24.3767 319.833 24.4933 319.719 24.6C319.606 24.7067 319.479 24.8 319.339 24.88C319.199 24.9533 319.049 25.01 318.889 25.05C318.736 25.0967 318.583 25.12 318.429 25.12C317.829 25.12 317.386 24.9633 317.099 24.65C316.813 24.33 316.669 23.8767 316.669 23.29V20.32H317.329V22.91C317.329 23.17 317.349 23.4 317.389 23.6C317.429 23.8 317.496 23.97 317.589 24.11C317.689 24.2433 317.819 24.3467 317.979 24.42C318.146 24.4867 318.353 24.52 318.599 24.52C318.633 24.52 318.726 24.5067 318.879 24.48C319.033 24.4533 319.193 24.38 319.359 24.26C319.533 24.14 319.686 23.96 319.819 23.72C319.953 23.48 320.019 23.1467 320.019 22.72V20.32H320.679V23.97C320.679 24.0967 320.683 24.2567 320.689 24.45C320.703 24.6433 320.716 24.8267 320.729 25H320.049Z" fill="#5F5F5F"/>
<path d="M322.226 21.36C322.226 21.1867 322.219 21.0133 322.206 20.84C322.199 20.6667 322.189 20.4933 322.176 20.32H322.886V21.03H322.906C323.066 20.7567 323.286 20.55 323.566 20.41C323.853 20.27 324.136 20.2 324.416 20.2C324.543 20.2 324.676 20.2133 324.816 20.24C324.963 20.2667 325.103 20.3167 325.236 20.39C325.369 20.4567 325.493 20.5533 325.606 20.68C325.726 20.8067 325.826 20.97 325.906 21.17C326.039 20.87 326.249 20.6333 326.536 20.46C326.829 20.2867 327.133 20.2 327.446 20.2C328.046 20.2 328.489 20.36 328.776 20.68C329.063 20.9933 329.206 21.4433 329.206 22.03V25H328.546V22.27C328.546 21.7967 328.463 21.4333 328.296 21.18C328.129 20.9267 327.819 20.8 327.366 20.8C327.119 20.8 326.913 20.85 326.746 20.95C326.579 21.0433 326.443 21.17 326.336 21.33C326.236 21.49 326.163 21.6733 326.116 21.88C326.069 22.08 326.046 22.29 326.046 22.51V25H325.386V22.27C325.386 21.7967 325.303 21.4333 325.136 21.18C324.969 20.9267 324.659 20.8 324.206 20.8C324.166 20.8 324.073 20.8133 323.926 20.84C323.786 20.8667 323.639 20.94 323.486 21.06C323.333 21.18 323.193 21.36 323.066 21.6C322.946 21.84 322.886 22.1733 322.886 22.6V25H322.226V21.36Z" fill="#5F5F5F"/>
<path d="M337.795 22.66C337.795 22.4 337.751 22.1567 337.665 21.93C337.585 21.7033 337.468 21.5067 337.315 21.34C337.161 21.1733 336.975 21.0433 336.755 20.95C336.541 20.85 336.298 20.8 336.025 20.8C335.751 20.8 335.501 20.85 335.275 20.95C335.048 21.0433 334.851 21.1733 334.685 21.34C334.518 21.5067 334.388 21.7033 334.295 21.93C334.201 22.1567 334.155 22.4 334.155 22.66C334.155 22.92 334.201 23.1633 334.295 23.39C334.388 23.6167 334.518 23.8133 334.685 23.98C334.851 24.1467 335.048 24.28 335.275 24.38C335.501 24.4733 335.751 24.52 336.025 24.52C336.298 24.52 336.541 24.4733 336.755 24.38C336.975 24.28 337.161 24.1467 337.315 23.98C337.468 23.8133 337.585 23.6167 337.665 23.39C337.751 23.1633 337.795 22.92 337.795 22.66ZM333.525 20.32H334.185V21.1H334.205C334.311 20.94 334.438 20.8033 334.585 20.69C334.731 20.5767 334.885 20.4833 335.045 20.41C335.205 20.3367 335.368 20.2833 335.535 20.25C335.708 20.2167 335.871 20.2 336.025 20.2C336.391 20.2 336.725 20.2633 337.025 20.39C337.331 20.51 337.595 20.68 337.815 20.9C338.035 21.12 338.205 21.38 338.325 21.68C338.451 21.98 338.515 22.3067 338.515 22.66C338.515 23.0133 338.451 23.34 338.325 23.64C338.205 23.94 338.035 24.2 337.815 24.42C337.595 24.64 337.331 24.8133 337.025 24.94C336.725 25.06 336.391 25.12 336.025 25.12C335.871 25.12 335.708 25.1033 335.535 25.07C335.368 25.0367 335.205 24.9833 335.045 24.91C334.885 24.8367 334.731 24.7433 334.585 24.63C334.438 24.5167 334.311 24.38 334.205 24.22H334.185V27.88H333.525V20.32Z" fill="#5F5F5F"/>
<path d="M342.298 22.67C342.131 22.67 341.921 22.68 341.668 22.7C341.421 22.7133 341.181 22.7533 340.948 22.82C340.721 22.88 340.525 22.9767 340.358 23.11C340.198 23.2433 340.118 23.4267 340.118 23.66C340.118 23.8133 340.148 23.9467 340.208 24.06C340.275 24.1667 340.361 24.2567 340.468 24.33C340.575 24.3967 340.691 24.4467 340.818 24.48C340.951 24.5067 341.085 24.52 341.218 24.52C341.458 24.52 341.665 24.48 341.838 24.4C342.018 24.32 342.168 24.2133 342.288 24.08C342.408 23.94 342.495 23.78 342.548 23.6C342.608 23.4133 342.638 23.2167 342.638 23.01V22.67H342.298ZM342.638 22.13V22.01C342.638 21.2033 342.238 20.8 341.438 20.8C340.891 20.8 340.415 20.9833 340.008 21.35L339.608 20.88C340.048 20.4267 340.708 20.2 341.588 20.2C341.815 20.2 342.031 20.2333 342.238 20.3C342.451 20.3667 342.635 20.47 342.788 20.61C342.941 20.7433 343.065 20.9133 343.158 21.12C343.251 21.3267 343.298 21.5733 343.298 21.86V23.95C343.298 24.13 343.305 24.32 343.318 24.52C343.338 24.7133 343.358 24.8733 343.378 25H342.738C342.718 24.8867 342.701 24.7633 342.688 24.63C342.681 24.4967 342.678 24.3667 342.678 24.24H342.658C342.465 24.5533 342.235 24.78 341.968 24.92C341.708 25.0533 341.388 25.12 341.008 25.12C340.801 25.12 340.601 25.09 340.408 25.03C340.215 24.9767 340.041 24.8933 339.888 24.78C339.741 24.66 339.621 24.5167 339.528 24.35C339.441 24.1767 339.398 23.9767 339.398 23.75C339.398 23.37 339.495 23.0733 339.688 22.86C339.888 22.64 340.135 22.4767 340.428 22.37C340.728 22.2633 341.045 22.1967 341.378 22.17C341.718 22.1433 342.028 22.13 342.308 22.13H342.638Z" fill="#5F5F5F"/>
<path d="M346.564 24.19L347.994 20.32H348.794L346.454 26.22C346.314 26.58 346.134 26.8667 345.914 27.08C345.7 27.2933 345.39 27.4 344.984 27.4C344.884 27.4 344.78 27.3967 344.674 27.39C344.574 27.3833 344.474 27.3633 344.374 27.33L344.444 26.69C344.584 26.7633 344.75 26.8 344.944 26.8C345.177 26.8 345.36 26.7267 345.494 26.58C345.627 26.4333 345.744 26.2267 345.844 25.96L346.184 25.06L344.264 20.32H345.094L346.564 24.19Z" fill="#5F5F5F"/>
<path d="M353.658 22.66C353.658 22.4 353.614 22.1567 353.528 21.93C353.448 21.7033 353.331 21.5067 353.178 21.34C353.024 21.1733 352.838 21.0433 352.618 20.95C352.404 20.85 352.161 20.8 351.888 20.8C351.614 20.8 351.368 20.85 351.148 20.95C350.934 21.0433 350.751 21.1733 350.598 21.34C350.451 21.5067 350.334 21.7033 350.248 21.93C350.168 22.1567 350.128 22.4 350.128 22.66C350.128 22.92 350.168 23.1633 350.248 23.39C350.334 23.6167 350.451 23.8133 350.598 23.98C350.751 24.1467 350.934 24.28 351.148 24.38C351.368 24.4733 351.614 24.52 351.888 24.52C352.161 24.52 352.404 24.4733 352.618 24.38C352.838 24.28 353.024 24.1467 353.178 23.98C353.331 23.8133 353.448 23.6167 353.528 23.39C353.614 23.1633 353.658 22.92 353.658 22.66ZM354.378 22.66C354.378 23.0133 354.314 23.34 354.188 23.64C354.068 23.94 353.898 24.2 353.678 24.42C353.458 24.64 353.194 24.8133 352.888 24.94C352.588 25.06 352.254 25.12 351.888 25.12C351.528 25.12 351.194 25.06 350.888 24.94C350.588 24.8133 350.328 24.64 350.108 24.42C349.888 24.2 349.714 23.94 349.588 23.64C349.468 23.34 349.408 23.0133 349.408 22.66C349.408 22.3067 349.468 21.98 349.588 21.68C349.714 21.38 349.888 21.12 350.108 20.9C350.328 20.68 350.588 20.51 350.888 20.39C351.194 20.2633 351.528 20.2 351.888 20.2C352.254 20.2 352.588 20.2633 352.888 20.39C353.194 20.51 353.458 20.68 353.678 20.9C353.898 21.12 354.068 21.38 354.188 21.68C354.314 21.98 354.378 22.3067 354.378 22.66Z" fill="#5F5F5F"/>
<path d="M358.955 25C358.942 24.8733 358.932 24.75 358.925 24.63C358.925 24.5033 358.925 24.3767 358.925 24.25H358.905C358.832 24.3767 358.739 24.4933 358.625 24.6C358.512 24.7067 358.385 24.8 358.245 24.88C358.105 24.9533 357.955 25.01 357.795 25.05C357.642 25.0967 357.489 25.12 357.335 25.12C356.735 25.12 356.292 24.9633 356.005 24.65C355.719 24.33 355.575 23.8767 355.575 23.29V20.32H356.235V22.91C356.235 23.17 356.255 23.4 356.295 23.6C356.335 23.8 356.402 23.97 356.495 24.11C356.595 24.2433 356.725 24.3467 356.885 24.42C357.052 24.4867 357.259 24.52 357.505 24.52C357.539 24.52 357.632 24.5067 357.785 24.48C357.939 24.4533 358.099 24.38 358.265 24.26C358.439 24.14 358.592 23.96 358.725 23.72C358.859 23.48 358.925 23.1467 358.925 22.72V20.32H359.585V23.97C359.585 24.0967 359.589 24.2567 359.595 24.45C359.609 24.6433 359.622 24.8267 359.635 25H358.955Z" fill="#5F5F5F"/>
<path d="M363.552 20.92H362.202V23.68C362.202 23.8533 362.219 23.9967 362.252 24.11C362.285 24.2167 362.332 24.3 362.392 24.36C362.452 24.42 362.522 24.4633 362.602 24.49C362.689 24.51 362.782 24.52 362.882 24.52C362.995 24.52 363.112 24.5033 363.232 24.47C363.352 24.4367 363.462 24.3933 363.562 24.34L363.592 24.95C363.345 25.0633 363.049 25.12 362.702 25.12C362.575 25.12 362.442 25.1033 362.302 25.07C362.169 25.0367 362.045 24.9733 361.932 24.88C361.819 24.7867 361.725 24.66 361.652 24.5C361.579 24.34 361.542 24.13 361.542 23.87V20.92H360.552V20.32H361.542V19H362.202V20.32H363.552V20.92Z" fill="#5F5F5F"/>
<path d="M369.896 22.67C369.729 22.67 369.519 22.68 369.266 22.7C369.019 22.7133 368.779 22.7533 368.546 22.82C368.319 22.88 368.122 22.9767 367.956 23.11C367.796 23.2433 367.716 23.4267 367.716 23.66C367.716 23.8133 367.746 23.9467 367.806 24.06C367.872 24.1667 367.959 24.2567 368.066 24.33C368.172 24.3967 368.289 24.4467 368.416 24.48C368.549 24.5067 368.682 24.52 368.816 24.52C369.056 24.52 369.262 24.48 369.436 24.4C369.616 24.32 369.766 24.2133 369.886 24.08C370.006 23.94 370.092 23.78 370.146 23.6C370.206 23.4133 370.236 23.2167 370.236 23.01V22.67H369.896ZM370.236 22.13V22.01C370.236 21.2033 369.836 20.8 369.036 20.8C368.489 20.8 368.012 20.9833 367.606 21.35L367.206 20.88C367.646 20.4267 368.306 20.2 369.186 20.2C369.412 20.2 369.629 20.2333 369.836 20.3C370.049 20.3667 370.232 20.47 370.386 20.61C370.539 20.7433 370.662 20.9133 370.756 21.12C370.849 21.3267 370.896 21.5733 370.896 21.86V23.95C370.896 24.13 370.902 24.32 370.916 24.52C370.936 24.7133 370.956 24.8733 370.976 25H370.336C370.316 24.8867 370.299 24.7633 370.286 24.63C370.279 24.4967 370.276 24.3667 370.276 24.24H370.256C370.062 24.5533 369.832 24.78 369.566 24.92C369.306 25.0533 368.986 25.12 368.606 25.12C368.399 25.12 368.199 25.09 368.006 25.03C367.812 24.9767 367.639 24.8933 367.486 24.78C367.339 24.66 367.219 24.5167 367.126 24.35C367.039 24.1767 366.996 23.9767 366.996 23.75C366.996 23.37 367.092 23.0733 367.286 22.86C367.486 22.64 367.732 22.4767 368.026 22.37C368.326 22.2633 368.642 22.1967 368.976 22.17C369.316 22.1433 369.626 22.13 369.906 22.13H370.236Z" fill="#5F5F5F"/>
<path d="M372.821 22.66C372.821 22.92 372.861 23.1633 372.941 23.39C373.028 23.6167 373.148 23.8133 373.301 23.98C373.455 24.1467 373.638 24.28 373.851 24.38C374.071 24.4733 374.318 24.52 374.591 24.52C374.858 24.52 375.105 24.4733 375.331 24.38C375.565 24.28 375.765 24.1467 375.931 23.98C376.098 23.8133 376.228 23.6167 376.321 23.39C376.415 23.1633 376.461 22.92 376.461 22.66C376.461 22.4 376.415 22.1567 376.321 21.93C376.228 21.7033 376.098 21.5067 375.931 21.34C375.765 21.1733 375.565 21.0433 375.331 20.95C375.105 20.85 374.858 20.8 374.591 20.8C374.318 20.8 374.071 20.85 373.851 20.95C373.638 21.0433 373.455 21.1733 373.301 21.34C373.148 21.5067 373.028 21.7033 372.941 21.93C372.861 22.1567 372.821 22.4 372.821 22.66ZM377.091 25H376.431V24.22H376.411C376.304 24.38 376.178 24.5167 376.031 24.63C375.884 24.7433 375.731 24.8367 375.571 24.91C375.411 24.9833 375.245 25.0367 375.071 25.07C374.905 25.1033 374.745 25.12 374.591 25.12C374.225 25.12 373.888 25.06 373.581 24.94C373.281 24.8133 373.021 24.64 372.801 24.42C372.581 24.2 372.408 23.94 372.281 23.64C372.161 23.34 372.101 23.0133 372.101 22.66C372.101 22.3067 372.161 21.98 372.281 21.68C372.408 21.38 372.581 21.12 372.801 20.9C373.021 20.68 373.281 20.51 373.581 20.39C373.888 20.2633 374.225 20.2 374.591 20.2C374.745 20.2 374.905 20.2167 375.071 20.25C375.245 20.2833 375.411 20.3367 375.571 20.41C375.731 20.4833 375.884 20.5767 376.031 20.69C376.178 20.8033 376.304 20.94 376.411 21.1H376.431V17.44H377.091V25Z" fill="#5F5F5F"/>
<path d="M378.934 22.66C378.934 22.92 378.974 23.1633 379.054 23.39C379.141 23.6167 379.261 23.8133 379.414 23.98C379.568 24.1467 379.751 24.28 379.964 24.38C380.184 24.4733 380.431 24.52 380.704 24.52C380.971 24.52 381.218 24.4733 381.444 24.38C381.678 24.28 381.878 24.1467 382.044 23.98C382.211 23.8133 382.341 23.6167 382.434 23.39C382.528 23.1633 382.574 22.92 382.574 22.66C382.574 22.4 382.528 22.1567 382.434 21.93C382.341 21.7033 382.211 21.5067 382.044 21.34C381.878 21.1733 381.678 21.0433 381.444 20.95C381.218 20.85 380.971 20.8 380.704 20.8C380.431 20.8 380.184 20.85 379.964 20.95C379.751 21.0433 379.568 21.1733 379.414 21.34C379.261 21.5067 379.141 21.7033 379.054 21.93C378.974 22.1567 378.934 22.4 378.934 22.66ZM383.204 25H382.544V24.22H382.524C382.418 24.38 382.291 24.5167 382.144 24.63C381.998 24.7433 381.844 24.8367 381.684 24.91C381.524 24.9833 381.358 25.0367 381.184 25.07C381.018 25.1033 380.858 25.12 380.704 25.12C380.338 25.12 380.001 25.06 379.694 24.94C379.394 24.8133 379.134 24.64 378.914 24.42C378.694 24.2 378.521 23.94 378.394 23.64C378.274 23.34 378.214 23.0133 378.214 22.66C378.214 22.3067 378.274 21.98 378.394 21.68C378.521 21.38 378.694 21.12 378.914 20.9C379.134 20.68 379.394 20.51 379.694 20.39C380.001 20.2633 380.338 20.2 380.704 20.2C380.858 20.2 381.018 20.2167 381.184 20.25C381.358 20.2833 381.524 20.3367 381.684 20.41C381.844 20.4833 381.998 20.5767 382.144 20.69C382.291 20.8033 382.418 20.94 382.524 21.1H382.544V17.44H383.204V25Z" fill="#5F5F5F"/>
<path d="M384.718 21.78C384.718 21.5733 384.711 21.3633 384.698 21.15C384.691 20.9367 384.684 20.66 384.678 20.32H385.328V21.19H385.348C385.394 21.0633 385.461 20.9433 385.548 20.83C385.634 20.71 385.738 20.6033 385.858 20.51C385.984 20.4167 386.128 20.3433 386.288 20.29C386.454 20.23 386.641 20.2 386.848 20.2C387.034 20.2 387.198 20.22 387.338 20.26L387.208 20.91C387.121 20.8767 386.994 20.86 386.828 20.86C386.574 20.86 386.358 20.91 386.178 21.01C385.998 21.1033 385.848 21.2267 385.728 21.38C385.608 21.5267 385.518 21.6867 385.458 21.86C385.404 22.0333 385.378 22.2 385.378 22.36V25H384.718V21.78Z" fill="#5F5F5F"/>
<path d="M391.432 22.3C391.432 21.8533 391.299 21.4933 391.032 21.22C390.766 20.94 390.392 20.8 389.912 20.8C389.699 20.8 389.492 20.8433 389.292 20.93C389.092 21.01 388.916 21.12 388.762 21.26C388.616 21.4 388.496 21.56 388.402 21.74C388.316 21.92 388.272 22.1067 388.272 22.3H391.432ZM388.252 22.84C388.272 23.0733 388.329 23.2933 388.422 23.5C388.516 23.7067 388.639 23.8867 388.792 24.04C388.946 24.1867 389.122 24.3033 389.322 24.39C389.522 24.4767 389.739 24.52 389.972 24.52C390.326 24.52 390.629 24.44 390.882 24.28C391.142 24.1133 391.339 23.9233 391.472 23.71L391.982 24.13C391.702 24.4833 391.392 24.7367 391.052 24.89C390.719 25.0433 390.359 25.12 389.972 25.12C389.626 25.12 389.302 25.06 389.002 24.94C388.709 24.8133 388.456 24.64 388.242 24.42C388.029 24.2 387.859 23.94 387.732 23.64C387.612 23.34 387.552 23.0133 387.552 22.66C387.552 22.3067 387.612 21.98 387.732 21.68C387.852 21.38 388.019 21.12 388.232 20.9C388.446 20.68 388.696 20.51 388.982 20.39C389.269 20.2633 389.579 20.2 389.912 20.2C390.266 20.2 390.582 20.2633 390.862 20.39C391.142 20.5167 391.376 20.6867 391.562 20.9C391.756 21.1067 391.902 21.3533 392.002 21.64C392.102 21.92 392.152 22.22 392.152 22.54V22.84H388.252Z" fill="#5F5F5F"/>
<path d="M395.829 21.43C395.729 21.2367 395.596 21.0833 395.429 20.97C395.262 20.8567 395.059 20.8 394.819 20.8C394.706 20.8 394.589 20.8133 394.469 20.84C394.356 20.8667 394.252 20.91 394.159 20.97C394.066 21.0233 393.989 21.0933 393.929 21.18C393.876 21.2667 393.849 21.3733 393.849 21.5C393.849 21.72 393.926 21.88 394.079 21.98C394.232 22.08 394.462 22.1667 394.769 22.24L395.439 22.4C395.766 22.4733 396.036 22.6233 396.249 22.85C396.469 23.07 396.579 23.3467 396.579 23.68C396.579 23.9333 396.526 24.1533 396.419 24.34C396.319 24.52 396.182 24.67 396.009 24.79C395.842 24.9033 395.649 24.9867 395.429 25.04C395.209 25.0933 394.986 25.12 394.759 25.12C394.399 25.12 394.062 25.0533 393.749 24.92C393.442 24.78 393.179 24.5433 392.959 24.21L393.529 23.82C393.662 24.0333 393.829 24.2033 394.029 24.33C394.236 24.4567 394.479 24.52 394.759 24.52C394.892 24.52 395.026 24.5067 395.159 24.48C395.292 24.4467 395.409 24.4 395.509 24.34C395.616 24.2733 395.699 24.19 395.759 24.09C395.826 23.99 395.859 23.8733 395.859 23.74C395.859 23.5067 395.772 23.34 395.599 23.24C395.426 23.1333 395.216 23.05 394.969 22.99L394.329 22.84C394.249 22.82 394.139 22.7867 393.999 22.74C393.866 22.6933 393.732 22.6233 393.599 22.53C393.472 22.4367 393.362 22.3167 393.269 22.17C393.176 22.0167 393.129 21.83 393.129 21.61C393.129 21.37 393.176 21.16 393.269 20.98C393.369 20.8 393.499 20.6533 393.659 20.54C393.826 20.4267 394.012 20.3433 394.219 20.29C394.426 20.23 394.639 20.2 394.859 20.2C395.186 20.2 395.489 20.2633 395.769 20.39C396.049 20.5167 396.266 20.7333 396.419 21.04L395.829 21.43Z" fill="#5F5F5F"/>
<path d="M400.087 21.43C399.987 21.2367 399.853 21.0833 399.687 20.97C399.52 20.8567 399.317 20.8 399.077 20.8C398.963 20.8 398.847 20.8133 398.727 20.84C398.613 20.8667 398.51 20.91 398.417 20.97C398.323 21.0233 398.247 21.0933 398.187 21.18C398.133 21.2667 398.107 21.3733 398.107 21.5C398.107 21.72 398.183 21.88 398.337 21.98C398.49 22.08 398.72 22.1667 399.027 22.24L399.697 22.4C400.023 22.4733 400.293 22.6233 400.507 22.85C400.727 23.07 400.837 23.3467 400.837 23.68C400.837 23.9333 400.783 24.1533 400.677 24.34C400.577 24.52 400.44 24.67 400.267 24.79C400.1 24.9033 399.907 24.9867 399.687 25.04C399.467 25.0933 399.243 25.12 399.017 25.12C398.657 25.12 398.32 25.0533 398.007 24.92C397.7 24.78 397.437 24.5433 397.217 24.21L397.787 23.82C397.92 24.0333 398.087 24.2033 398.287 24.33C398.493 24.4567 398.737 24.52 399.017 24.52C399.15 24.52 399.283 24.5067 399.417 24.48C399.55 24.4467 399.667 24.4 399.767 24.34C399.873 24.2733 399.957 24.19 400.017 24.09C400.083 23.99 400.117 23.8733 400.117 23.74C400.117 23.5067 400.03 23.34 399.857 23.24C399.683 23.1333 399.473 23.05 399.227 22.99L398.587 22.84C398.507 22.82 398.397 22.7867 398.257 22.74C398.123 22.6933 397.99 22.6233 397.857 22.53C397.73 22.4367 397.62 22.3167 397.527 22.17C397.433 22.0167 397.387 21.83 397.387 21.61C397.387 21.37 397.433 21.16 397.527 20.98C397.627 20.8 397.757 20.6533 397.917 20.54C398.083 20.4267 398.27 20.3433 398.477 20.29C398.683 20.23 398.897 20.2 399.117 20.2C399.443 20.2 399.747 20.2633 400.027 20.39C400.307 20.5167 400.523 20.7333 400.677 21.04L400.087 21.43Z" fill="#5F5F5F"/>
<path d="M403.075 24.52C403.075 24.66 403.025 24.7867 402.925 24.9C402.825 25.0067 402.695 25.06 402.535 25.06C402.375 25.06 402.245 25.0067 402.145 24.9C402.045 24.7867 401.995 24.66 401.995 24.52C401.995 24.38 402.045 24.2567 402.145 24.15C402.245 24.0367 402.375 23.98 402.535 23.98C402.695 23.98 402.825 24.0367 402.925 24.15C403.025 24.2567 403.075 24.38 403.075 24.52Z" fill="#5F5F5F"/>
<path d="M27 21.5C27 25.6421 23.6421 29 19.5 29C15.3579 29 12 25.6421 12 21.5C12 17.3579 15.3579 14 19.5 14C23.6421 14 27 17.3579 27 21.5Z" fill="#006DFF"/>
<path d="M20.5384 24.52C20.5384 24.66 20.4884 24.7867 20.3884 24.9C20.2884 25.0067 20.1584 25.06 19.9984 25.06C19.8384 25.06 19.7084 25.0067 19.6084 24.9C19.5084 24.7867 19.4584 24.66 19.4584 24.52C19.4584 24.38 19.5084 24.2567 19.6084 24.15C19.7084 24.0367 19.8384 23.98 19.9984 23.98C20.1584 23.98 20.2884 24.0367 20.3884 24.15C20.4884 24.2567 20.5384 24.38 20.5384 24.52ZM20.3584 23.08H19.6384V17.92H20.3584V23.08Z" fill="white"/>
</svg>
