<svg width="22" height="22" viewBox="0 0 22 22" fill="none" xmlns="http://www.w3.org/2000/svg">
<circle cx="10.6765" cy="11.3249" r="10.6765" fill="#EAECEF"/>
<path d="M12.0625 3.9281L11.8136 13.081H9.47751L9.2222 3.9281H12.0625ZM10.6456 17.166C10.2243 17.166 9.8626 17.017 9.56048 16.7192C9.25837 16.417 9.10943 16.0554 9.11369 15.6341C9.10943 15.2171 9.25837 14.8596 9.56048 14.5618C9.8626 14.2639 10.2243 14.115 10.6456 14.115C11.0498 14.115 11.4051 14.2639 11.7115 14.5618C12.0178 14.8596 12.1732 15.2171 12.1774 15.6341C12.1732 15.9149 12.0987 16.1724 11.954 16.4064C11.8136 16.6362 11.6285 16.8213 11.3987 16.9617C11.1689 17.0979 10.9179 17.166 10.6456 17.166Z" fill="#1E2329"/>
</svg>
