<svg width="895" height="92" viewBox="0 0 895 92" fill="none" xmlns="http://www.w3.org/2000/svg">
<rect width="894.909" height="92" rx="10.4545" fill="#2B3139"/>
<path d="M547.28 38V18.3051H549.665V27.0755H560.166V18.3051H562.551V38H560.166V29.1912H549.665V38H547.28ZM573.211 38.3077C571.788 38.3077 570.56 37.9936 569.528 37.3653C568.502 36.7306 567.71 35.8459 567.152 34.7111C566.601 33.5699 566.325 32.2428 566.325 30.7298C566.325 29.2168 566.601 27.8833 567.152 26.7293C567.71 25.5689 568.486 24.6649 569.48 24.0174C570.48 23.3635 571.647 23.0365 572.98 23.0365C573.749 23.0365 574.509 23.1647 575.259 23.4212C576.009 23.6776 576.692 24.0943 577.308 24.6713C577.923 25.2419 578.414 25.9984 578.779 26.9409C579.144 27.8833 579.327 29.0437 579.327 30.4221V31.3838H567.941V29.422H577.019C577.019 28.5885 576.852 27.8448 576.519 27.1909C576.192 26.537 575.724 26.0209 575.115 25.6426C574.512 25.2644 573.801 25.0752 572.98 25.0752C572.076 25.0752 571.294 25.2996 570.634 25.7484C569.98 26.1908 569.476 26.7678 569.124 27.4794C568.771 28.191 568.595 28.9539 568.595 29.7682V31.076C568.595 32.1915 568.787 33.1372 569.172 33.9129C569.563 34.6823 570.105 35.2689 570.797 35.6728C571.49 36.0703 572.294 36.269 573.211 36.269C573.807 36.269 574.346 36.1857 574.827 36.019C575.314 35.8459 575.734 35.5894 576.086 35.2496C576.439 34.9034 576.711 34.4739 576.904 33.961L579.096 34.5765C578.866 35.3202 578.478 35.9741 577.933 36.5383C577.388 37.096 576.715 37.532 575.913 37.8461C575.112 38.1539 574.211 38.3077 573.211 38.3077ZM587.126 38.3462C586.19 38.3462 585.341 38.1699 584.578 37.8173C583.815 37.4583 583.209 36.9422 582.76 36.269C582.311 35.5894 582.087 34.7688 582.087 33.8071C582.087 32.9609 582.254 32.2749 582.587 31.7492C582.921 31.2171 583.366 30.8003 583.924 30.499C584.482 30.1977 585.097 29.9733 585.77 29.8259C586.45 29.672 587.133 29.5502 587.819 29.4604C588.716 29.345 589.444 29.2585 590.002 29.2008C590.566 29.1367 590.976 29.0309 591.233 28.8834C591.495 28.736 591.627 28.4795 591.627 28.1141V28.0372C591.627 27.0883 591.367 26.351 590.848 25.8253C590.335 25.2996 589.556 25.0368 588.511 25.0368C587.428 25.0368 586.578 25.274 585.963 25.7484C585.347 26.2228 584.914 26.7293 584.664 27.2678L582.51 26.4985C582.895 25.6009 583.408 24.9021 584.049 24.4021C584.696 23.8956 585.402 23.543 586.165 23.3442C586.934 23.1391 587.69 23.0365 588.434 23.0365C588.908 23.0365 589.453 23.0942 590.069 23.2096C590.691 23.3186 591.29 23.5462 591.867 23.8924C592.451 24.2386 592.935 24.7611 593.319 25.4599C593.704 26.1587 593.896 27.0947 593.896 28.268V38H591.627V35.9997H591.511C591.358 36.3203 591.101 36.6633 590.742 37.0287C590.383 37.3942 589.905 37.7051 589.309 37.9615C588.713 38.218 587.985 38.3462 587.126 38.3462ZM587.472 36.3075C588.37 36.3075 589.126 36.1312 589.742 35.7786C590.364 35.4259 590.832 34.9708 591.146 34.413C591.467 33.8552 591.627 33.2686 591.627 32.6531V30.576C591.531 30.6914 591.319 30.7971 590.992 30.8933C590.672 30.9831 590.3 31.0632 589.877 31.1337C589.46 31.1978 589.053 31.2555 588.655 31.3068C588.264 31.3517 587.947 31.3902 587.703 31.4222C587.113 31.4992 586.562 31.6242 586.049 31.7973C585.543 31.964 585.132 32.2172 584.818 32.557C584.51 32.8904 584.357 33.3455 584.357 33.9225C584.357 34.7111 584.648 35.3073 585.232 35.7112C585.822 36.1087 586.568 36.3075 587.472 36.3075ZM609.588 23.2288L604.126 38H601.818L596.356 23.2288H598.818L602.895 34.9996H603.049L607.126 23.2288H609.588ZM614.046 43.5392C613.661 43.5392 613.318 43.5071 613.017 43.443C612.715 43.3853 612.507 43.3276 612.392 43.2699L612.969 41.2697C613.52 41.4107 614.007 41.462 614.43 41.4235C614.853 41.3851 615.228 41.1959 615.555 40.8561C615.889 40.5228 616.193 39.981 616.469 39.2309L616.892 38.0769L611.43 23.2288H613.892L617.969 34.9996H618.123L622.201 23.2288H624.662L618.392 40.1541C618.11 40.917 617.761 41.5485 617.344 42.0486C616.927 42.5551 616.443 42.9301 615.892 43.1738C615.347 43.4174 614.732 43.5392 614.046 43.5392ZM639.159 38L633.774 18.3051H636.198L640.313 34.3457H640.506L644.699 18.3051H647.391L651.584 34.3457H651.776L655.892 18.3051H658.316L652.93 38H650.469L646.122 22.3056H645.968L641.621 38H639.159ZM665.798 38.3077C664.374 38.3077 663.147 37.9936 662.114 37.3653C661.089 36.7306 660.297 35.8459 659.739 34.7111C659.188 33.5699 658.912 32.2428 658.912 30.7298C658.912 29.2168 659.188 27.8833 659.739 26.7293C660.297 25.5689 661.073 24.6649 662.066 24.0174C663.066 23.3635 664.233 23.0365 665.567 23.0365C666.336 23.0365 667.096 23.1647 667.846 23.4212C668.596 23.6776 669.279 24.0943 669.894 24.6713C670.51 25.2419 671 25.9984 671.366 26.9409C671.731 27.8833 671.914 29.0437 671.914 30.4221V31.3838H660.528V29.422H669.606C669.606 28.5885 669.439 27.8448 669.106 27.1909C668.779 26.537 668.311 26.0209 667.702 25.6426C667.099 25.2644 666.387 25.0752 665.567 25.0752C664.663 25.0752 663.881 25.2996 663.22 25.7484C662.566 26.1908 662.063 26.7678 661.71 27.4794C661.358 28.191 661.182 28.9539 661.182 29.7682V31.076C661.182 32.1915 661.374 33.1372 661.759 33.9129C662.15 34.6823 662.691 35.2689 663.384 35.6728C664.076 36.0703 664.881 36.269 665.798 36.269C666.394 36.269 666.932 36.1857 667.413 36.019C667.9 35.8459 668.32 35.5894 668.673 35.2496C669.026 34.9034 669.298 34.4739 669.49 33.961L671.683 34.5765C671.452 35.3202 671.064 35.9741 670.519 36.5383C669.974 37.096 669.301 37.532 668.5 37.8461C667.698 38.1539 666.798 38.3077 665.798 38.3077ZM675.366 38V23.2288H677.636V38H675.366ZM676.52 20.767C676.078 20.767 675.696 20.6163 675.376 20.315C675.062 20.0137 674.905 19.6514 674.905 19.2283C674.905 18.8052 675.062 18.443 675.376 18.1416C675.696 17.8403 676.078 17.6897 676.52 17.6897C676.962 17.6897 677.341 17.8403 677.655 18.1416C677.975 18.443 678.136 18.8052 678.136 19.2283C678.136 19.6514 677.975 20.0137 677.655 20.315C677.341 20.6163 676.962 20.767 676.52 20.767ZM687.755 43.8469C686.658 43.8469 685.716 43.7059 684.927 43.4238C684.139 43.1481 683.482 42.7827 682.956 42.3275C682.437 41.8787 682.023 41.3979 681.715 40.885L683.523 39.6156C683.729 39.8849 683.988 40.1926 684.302 40.5388C684.617 40.8914 685.046 41.1959 685.591 41.4524C686.142 41.7152 686.864 41.8467 687.755 41.8467C688.947 41.8467 689.931 41.5582 690.707 40.9812C691.483 40.4042 691.871 39.5002 691.871 38.2693V35.2689H691.678C691.512 35.5381 691.274 35.8715 690.967 36.269C690.665 36.6601 690.229 37.0095 689.659 37.3172C689.095 37.6185 688.332 37.7692 687.37 37.7692C686.178 37.7692 685.107 37.4871 684.158 36.9229C683.216 36.3588 682.469 35.5381 681.917 34.4611C681.372 33.384 681.1 32.0761 681.1 30.5375C681.1 29.0245 681.366 27.707 681.898 26.585C682.43 25.4567 683.171 24.5848 684.12 23.9693C685.068 23.3474 686.165 23.0365 687.409 23.0365C688.37 23.0365 689.133 23.1968 689.697 23.5173C690.268 23.8315 690.704 24.1905 691.005 24.5944C691.313 24.9919 691.55 25.3189 691.717 25.5753H691.948V23.2288H694.14V38.4231C694.14 39.6925 693.852 40.7247 693.275 41.5197C692.704 42.3211 691.935 42.9077 690.967 43.2795C690.005 43.6578 688.934 43.8469 687.755 43.8469ZM687.678 35.7305C688.588 35.7305 689.358 35.5221 689.986 35.1054C690.614 34.6887 691.092 34.0892 691.419 33.3071C691.746 32.5249 691.909 31.5889 691.909 30.499C691.909 29.4348 691.749 28.4956 691.428 27.6813C691.108 26.8671 690.633 26.2292 690.005 25.7676C689.377 25.306 688.601 25.0752 687.678 25.0752C686.716 25.0752 685.915 25.3189 685.274 25.8061C684.639 26.2933 684.161 26.9473 683.841 27.7679C683.527 28.5885 683.37 29.4989 683.37 30.499C683.37 31.5248 683.53 32.432 683.85 33.2205C684.177 34.0027 684.658 34.6181 685.293 35.0669C685.934 35.5093 686.729 35.7305 687.678 35.7305ZM700.564 29.1142V38H698.295V18.3051H700.564V25.5368H700.756C701.103 24.7739 701.622 24.1681 702.314 23.7193C703.013 23.2641 703.943 23.0365 705.103 23.0365C706.11 23.0365 706.991 23.2385 707.748 23.6424C708.504 24.0398 709.091 24.6521 709.508 25.4791C709.931 26.2998 710.142 27.3448 710.142 28.6142V38H707.873V28.768C707.873 27.5948 707.568 26.6876 706.959 26.0465C706.357 25.399 705.52 25.0752 704.449 25.0752C703.706 25.0752 703.039 25.2323 702.449 25.5464C701.866 25.8606 701.404 26.319 701.064 26.9216C700.731 27.5243 700.564 28.2551 700.564 29.1142ZM720.718 23.2288V25.1522H713.063V23.2288H720.718ZM715.294 19.6899H717.564V33.7687C717.564 34.4098 717.657 34.8906 717.843 35.2112C718.035 35.5253 718.279 35.7369 718.574 35.8459C718.875 35.9484 719.192 35.9997 719.526 35.9997C719.776 35.9997 719.981 35.9869 720.141 35.9613C720.301 35.9292 720.43 35.9036 720.526 35.8843L720.987 37.9231C720.834 37.9808 720.619 38.0385 720.343 38.0962C720.067 38.1603 719.718 38.1923 719.295 38.1923C718.654 38.1923 718.026 38.0545 717.41 37.7788C716.801 37.5031 716.295 37.0832 715.891 36.519C715.493 35.9549 715.294 35.2432 715.294 34.3841V19.6899ZM742.827 23.2288C742.711 22.2544 742.243 21.4978 741.423 20.9593C740.602 20.4208 739.596 20.1515 738.403 20.1515C737.531 20.1515 736.768 20.2926 736.114 20.5746C735.467 20.8567 734.96 21.2446 734.595 21.7383C734.236 22.2319 734.056 22.7929 734.056 23.4212C734.056 23.9469 734.181 24.3989 734.432 24.7771C734.688 25.149 735.015 25.4599 735.412 25.7099C735.81 25.9536 736.227 26.1555 736.663 26.3158C737.099 26.4696 737.499 26.5947 737.865 26.6908L739.865 27.2294C740.378 27.364 740.948 27.5499 741.577 27.7871C742.211 28.0243 742.817 28.3481 743.394 28.7584C743.978 29.1623 744.458 29.6816 744.837 30.3163C745.215 30.951 745.404 31.7299 745.404 32.6531C745.404 33.7174 745.125 34.6791 744.567 35.5381C744.016 36.3972 743.208 37.08 742.144 37.5865C741.086 38.093 739.801 38.3462 738.288 38.3462C736.877 38.3462 735.656 38.1186 734.624 37.6634C733.598 37.2082 732.79 36.5735 732.2 35.7593C731.617 34.9451 731.287 33.9995 731.21 32.9224H733.672C733.736 33.6661 733.986 34.2816 734.422 34.7688C734.864 35.2496 735.422 35.6087 736.095 35.8459C736.775 36.0767 737.506 36.1921 738.288 36.1921C739.198 36.1921 740.016 36.0446 740.74 35.7497C741.464 35.4484 742.038 35.0317 742.461 34.4995C742.885 33.961 743.096 33.3327 743.096 32.6147C743.096 31.9607 742.913 31.4286 742.548 31.0183C742.183 30.608 741.702 30.2746 741.105 30.0182C740.509 29.7617 739.865 29.5374 739.173 29.345L736.749 28.6526C735.21 28.2103 733.992 27.5788 733.095 26.7581C732.197 25.9375 731.748 24.8637 731.748 23.5366C731.748 22.4339 732.047 21.4722 732.643 20.6516C733.245 19.8245 734.053 19.1834 735.066 18.7283C736.086 18.2667 737.224 18.0359 738.48 18.0359C739.75 18.0359 740.878 18.2634 741.865 18.7186C742.852 19.1674 743.635 19.7829 744.212 20.565C744.795 21.3472 745.103 22.2351 745.135 23.2288H742.827ZM751.287 18.3051V38H749.018V18.3051H751.287ZM759.791 38.3462C758.855 38.3462 758.005 38.1699 757.242 37.8173C756.479 37.4583 755.873 36.9422 755.425 36.269C754.976 35.5894 754.751 34.7688 754.751 33.8071C754.751 32.9609 754.918 32.2749 755.252 31.7492C755.585 31.2171 756.03 30.8003 756.588 30.499C757.146 30.1977 757.761 29.9733 758.435 29.8259C759.114 29.672 759.797 29.5502 760.483 29.4604C761.381 29.345 762.108 29.2585 762.666 29.2008C763.23 29.1367 763.64 29.0309 763.897 28.8834C764.16 28.736 764.291 28.4795 764.291 28.1141V28.0372C764.291 27.0883 764.032 26.351 763.512 25.8253C762.999 25.2996 762.22 25.0368 761.175 25.0368C760.092 25.0368 759.242 25.274 758.627 25.7484C758.012 26.2228 757.579 26.7293 757.329 27.2678L755.175 26.4985C755.559 25.6009 756.072 24.9021 756.713 24.4021C757.361 23.8956 758.066 23.543 758.829 23.3442C759.598 23.1391 760.355 23.0365 761.098 23.0365C761.573 23.0365 762.118 23.0942 762.733 23.2096C763.355 23.3186 763.955 23.5462 764.532 23.8924C765.115 24.2386 765.599 24.7611 765.984 25.4599C766.368 26.1587 766.561 27.0947 766.561 28.268V38H764.291V35.9997H764.176C764.022 36.3203 763.765 36.6633 763.406 37.0287C763.047 37.3942 762.57 37.7051 761.974 37.9615C761.377 38.218 760.65 38.3462 759.791 38.3462ZM760.137 36.3075C761.034 36.3075 761.791 36.1312 762.406 35.7786C763.028 35.4259 763.496 34.9708 763.81 34.413C764.131 33.8552 764.291 33.2686 764.291 32.6531V30.576C764.195 30.6914 763.983 30.7971 763.656 30.8933C763.336 30.9831 762.964 31.0632 762.541 31.1337C762.124 31.1978 761.717 31.2555 761.32 31.3068C760.929 31.3517 760.611 31.3902 760.368 31.4222C759.778 31.4992 759.226 31.6242 758.714 31.7973C758.207 31.964 757.797 32.2172 757.483 32.557C757.175 32.8904 757.021 33.3455 757.021 33.9225C757.021 34.7111 757.313 35.3073 757.896 35.7112C758.486 36.1087 759.233 36.3075 760.137 36.3075ZM770.703 43.5392V23.2288H772.896V25.5753H773.165C773.332 25.3189 773.562 24.9919 773.857 24.5944C774.159 24.1905 774.588 23.8315 775.146 23.5173C775.71 23.1968 776.473 23.0365 777.435 23.0365C778.678 23.0365 779.775 23.3474 780.724 23.9693C781.672 24.5912 782.413 25.4727 782.945 26.6139C783.477 27.7551 783.743 29.1014 783.743 30.6529C783.743 32.2172 783.477 33.5731 782.945 34.7207C782.413 35.8619 781.676 36.7466 780.733 37.3749C779.791 37.9968 778.704 38.3077 777.473 38.3077C776.524 38.3077 775.765 38.1507 775.194 37.8365C774.623 37.516 774.184 37.1537 773.877 36.7498C773.569 36.3395 773.332 35.9997 773.165 35.7305H772.973V43.5392H770.703ZM772.934 30.6144C772.934 31.7299 773.098 32.7141 773.425 33.5667C773.752 34.413 774.229 35.0765 774.857 35.5574C775.486 36.0318 776.255 36.269 777.165 36.269C778.114 36.269 778.906 36.019 779.541 35.5189C780.182 35.0124 780.663 34.3329 780.983 33.4802C781.31 32.6211 781.474 31.6658 781.474 30.6144C781.474 29.5758 781.313 28.6398 780.993 27.8064C780.679 26.9665 780.201 26.303 779.56 25.8157C778.925 25.3221 778.127 25.0752 777.165 25.0752C776.242 25.0752 775.467 25.3092 774.838 25.7772C774.21 26.2388 773.736 26.8864 773.415 27.7198C773.094 28.5468 772.934 29.5117 772.934 30.6144ZM795.129 38V18.3051H797.514V28.0756H797.745L806.592 18.3051H809.708L801.438 27.1909L809.708 38H806.823L799.976 28.845L797.514 31.6145V38H795.129ZM813.413 38V23.2288H815.683V38H813.413ZM814.567 20.767C814.125 20.767 813.743 20.6163 813.423 20.315C813.108 20.0137 812.951 19.6514 812.951 19.2283C812.951 18.8052 813.108 18.443 813.423 18.1416C813.743 17.8403 814.125 17.6897 814.567 17.6897C815.009 17.6897 815.388 17.8403 815.702 18.1416C816.022 18.443 816.183 18.8052 816.183 19.2283C816.183 19.6514 816.022 20.0137 815.702 20.315C815.388 20.6163 815.009 20.767 814.567 20.767ZM822.109 29.1142V38H819.839V23.2288H822.032V25.5368H822.224C822.57 24.7867 823.096 24.1841 823.801 23.7289C824.507 23.2673 825.417 23.0365 826.532 23.0365C827.533 23.0365 828.408 23.2417 829.158 23.652C829.908 24.0559 830.491 24.6713 830.908 25.4984C831.325 26.319 831.533 27.3576 831.533 28.6142V38H829.264V28.768C829.264 27.6076 828.962 26.7037 828.36 26.0561C827.757 25.4022 826.93 25.0752 825.879 25.0752C825.154 25.0752 824.507 25.2323 823.936 25.5464C823.372 25.8606 822.926 26.319 822.599 26.9216C822.272 27.5243 822.109 28.2551 822.109 29.1142ZM841.643 43.8469C840.546 43.8469 839.604 43.7059 838.815 43.4238C838.027 43.1481 837.37 42.7827 836.844 42.3275C836.325 41.8787 835.911 41.3979 835.603 40.885L837.411 39.6156C837.616 39.8849 837.876 40.1926 838.19 40.5388C838.504 40.8914 838.934 41.1959 839.479 41.4524C840.03 41.7152 840.752 41.8467 841.643 41.8467C842.835 41.8467 843.819 41.5582 844.595 40.9812C845.371 40.4042 845.759 39.5002 845.759 38.2693V35.2689H845.566C845.4 35.5381 845.162 35.8715 844.855 36.269C844.553 36.6601 844.117 37.0095 843.547 37.3172C842.983 37.6185 842.22 37.7692 841.258 37.7692C840.066 37.7692 838.995 37.4871 838.046 36.9229C837.104 36.3588 836.357 35.5381 835.805 34.4611C835.26 33.384 834.988 32.0761 834.988 30.5375C834.988 29.0245 835.254 27.707 835.786 26.585C836.318 25.4567 837.059 24.5848 838.008 23.9693C838.956 23.3474 840.053 23.0365 841.296 23.0365C842.258 23.0365 843.021 23.1968 843.585 23.5173C844.156 23.8315 844.592 24.1905 844.893 24.5944C845.201 24.9919 845.438 25.3189 845.605 25.5753H845.836V23.2288H848.028V38.4231C848.028 39.6925 847.74 40.7247 847.163 41.5197C846.592 42.3211 845.823 42.9077 844.855 43.2795C843.893 43.6578 842.822 43.8469 841.643 43.8469ZM841.566 35.7305C842.476 35.7305 843.245 35.5221 843.874 35.1054C844.502 34.6887 844.98 34.0892 845.307 33.3071C845.634 32.5249 845.797 31.5889 845.797 30.499C845.797 29.4348 845.637 28.4956 845.316 27.6813C844.996 26.8671 844.521 26.2292 843.893 25.7676C843.265 25.306 842.489 25.0752 841.566 25.0752C840.604 25.0752 839.803 25.3189 839.162 25.8061C838.527 26.2933 838.049 26.9473 837.729 27.7679C837.415 28.5885 837.257 29.4989 837.257 30.499C837.257 31.5248 837.418 32.432 837.738 33.2205C838.065 34.0027 838.546 34.6181 839.181 35.0669C839.822 35.5093 840.617 35.7305 841.566 35.7305ZM616.886 78V58.3051H624.656C626.15 58.3051 627.423 58.5904 628.474 59.161C629.526 59.7252 630.327 60.5105 630.878 61.5171C631.436 62.5172 631.715 63.6712 631.715 64.9791C631.715 66.2869 631.433 67.4409 630.869 68.4411C630.305 69.4412 629.487 70.2201 628.416 70.7779C627.352 71.3357 626.064 71.6145 624.551 71.6145H619.598V68.2776H623.877C624.679 68.2776 625.339 68.1397 625.858 67.8641C626.384 67.582 626.775 67.1941 627.032 66.7004C627.295 66.2004 627.426 65.6266 627.426 64.9791C627.426 64.3251 627.295 63.7545 627.032 63.2673C626.775 62.7737 626.384 62.3922 625.858 62.1229C625.333 61.8472 624.666 61.7094 623.858 61.7094H621.05V78H616.886ZM634.343 78V63.2288H638.314V65.8061H638.468C638.738 64.8893 639.189 64.1969 639.824 63.7289C640.459 63.2545 641.19 63.0173 642.017 63.0173C642.222 63.0173 642.443 63.0301 642.68 63.0557C642.918 63.0814 643.126 63.1166 643.305 63.1615V66.7966C643.113 66.7389 642.847 66.6876 642.507 66.6427C642.167 66.5979 641.857 66.5754 641.574 66.5754C640.972 66.5754 640.433 66.7069 639.959 66.9697C639.491 67.2262 639.119 67.5852 638.843 68.0468C638.574 68.5084 638.439 69.0405 638.439 69.6431V78H634.343ZM651.468 78.2885C649.948 78.2885 648.64 77.9808 647.544 77.3653C646.454 76.7434 645.614 75.8651 645.024 74.7303C644.435 73.5892 644.14 72.2396 644.14 70.6817C644.14 69.1623 644.435 67.8288 645.024 66.6812C645.614 65.5336 646.444 64.6393 647.515 63.9982C648.592 63.3571 649.855 63.0365 651.304 63.0365C652.279 63.0365 653.186 63.1936 654.026 63.5077C654.872 63.8155 655.609 64.2803 656.237 64.9021C656.872 65.524 657.366 66.3062 657.718 67.2486C658.071 68.1846 658.247 69.2809 658.247 70.5375V71.6626H645.774V69.1238H654.391C654.391 68.534 654.263 68.0115 654.006 67.5563C653.75 67.1011 653.394 66.7453 652.939 66.4889C652.49 66.226 651.968 66.0946 651.371 66.0946C650.75 66.0946 650.198 66.2388 649.717 66.5273C649.243 66.8094 648.871 67.1909 648.602 67.6717C648.333 68.1461 648.195 68.6751 648.188 69.2585V71.6722C648.188 72.4031 648.323 73.0346 648.592 73.5667C648.868 74.0988 649.256 74.5092 649.756 74.7977C650.256 75.0862 650.849 75.2304 651.535 75.2304C651.99 75.2304 652.407 75.1663 652.785 75.0381C653.163 74.9099 653.487 74.7175 653.756 74.4611C654.026 74.2046 654.231 73.8905 654.372 73.5186L658.161 73.7687C657.968 74.6791 657.574 75.474 656.978 76.1536C656.388 76.8268 655.625 77.3525 654.689 77.7307C653.76 78.1026 652.686 78.2885 651.468 78.2885ZM673.211 67.4409L669.46 67.6717C669.396 67.3512 669.258 67.0627 669.047 66.8062C668.835 66.5434 668.556 66.335 668.21 66.1811C667.87 66.0209 667.463 65.9407 666.989 65.9407C666.354 65.9407 665.819 66.0754 665.383 66.3446C664.947 66.6075 664.729 66.9601 664.729 67.4025C664.729 67.7551 664.87 68.0532 665.152 68.2968C665.434 68.5404 665.918 68.736 666.604 68.8834L669.278 69.422C670.714 69.7169 671.784 70.1913 672.49 70.8452C673.195 71.4992 673.547 72.3582 673.547 73.4225C673.547 74.3906 673.262 75.24 672.691 75.9709C672.127 76.7018 671.352 77.2723 670.364 77.6827C669.383 78.0865 668.252 78.2885 666.97 78.2885C665.014 78.2885 663.456 77.8814 662.296 77.0672C661.142 76.2466 660.466 75.131 660.267 73.7206L664.296 73.509C664.418 74.1053 664.713 74.5604 665.181 74.8746C665.649 75.1823 666.248 75.3362 666.979 75.3362C667.697 75.3362 668.274 75.1984 668.71 74.9227C669.153 74.6406 669.377 74.2784 669.383 73.836C669.377 73.4642 669.22 73.1596 668.912 72.9224C668.604 72.6788 668.13 72.4929 667.489 72.3646L664.931 71.855C663.488 71.5665 662.414 71.0664 661.709 70.3548C661.01 69.6431 660.661 68.736 660.661 67.6333C660.661 66.6844 660.917 65.867 661.43 65.181C661.95 64.495 662.677 63.9661 663.613 63.5943C664.556 63.2224 665.659 63.0365 666.921 63.0365C668.787 63.0365 670.255 63.4308 671.326 64.2194C672.403 65.0079 673.031 66.0818 673.211 67.4409ZM680.339 78.2789C679.397 78.2789 678.557 78.1154 677.82 77.7884C677.082 77.4551 676.499 76.9646 676.069 76.3171C675.646 75.6632 675.435 74.8489 675.435 73.8745C675.435 73.0538 675.585 72.3646 675.887 71.8069C676.188 71.2491 676.598 70.8003 677.118 70.4606C677.637 70.1208 678.227 69.8643 678.887 69.6912C679.554 69.5181 680.253 69.3963 680.983 69.3258C681.843 69.236 682.535 69.1527 683.061 69.0758C683.586 68.9924 683.968 68.8706 684.205 68.7103C684.442 68.55 684.561 68.3128 684.561 67.9987V67.941C684.561 67.3319 684.368 66.8607 683.984 66.5273C683.606 66.194 683.067 66.0273 682.368 66.0273C681.631 66.0273 681.044 66.1908 680.608 66.5177C680.172 66.8383 679.884 67.2422 679.743 67.7294L675.954 67.4217C676.146 66.5241 676.525 65.7484 677.089 65.0945C677.653 64.4341 678.381 63.9276 679.272 63.575C680.169 63.216 681.208 63.0365 682.387 63.0365C683.208 63.0365 683.993 63.1327 684.744 63.325C685.5 63.5173 686.17 63.8155 686.753 64.2194C687.343 64.6233 687.808 65.1426 688.148 65.7772C688.488 66.4055 688.657 67.1588 688.657 68.0372V78H684.772V75.9517H684.657C684.42 76.4133 684.102 76.8204 683.705 77.173C683.307 77.5192 682.83 77.7916 682.272 77.9904C681.714 78.1827 681.07 78.2789 680.339 78.2789ZM681.512 75.4516C682.115 75.4516 682.647 75.333 683.109 75.0958C683.57 74.8522 683.933 74.5252 684.195 74.1149C684.458 73.7046 684.59 73.2398 684.59 72.7205V71.153C684.461 71.2363 684.285 71.3132 684.061 71.3838C683.843 71.4479 683.596 71.5088 683.32 71.5665C683.045 71.6178 682.769 71.6658 682.493 71.7107C682.218 71.7492 681.968 71.7844 681.743 71.8165C681.262 71.887 680.842 71.9992 680.483 72.1531C680.124 72.3069 679.845 72.5153 679.647 72.7782C679.448 73.0346 679.349 73.3552 679.349 73.7398C679.349 74.2976 679.551 74.7239 679.954 75.0188C680.365 75.3073 680.884 75.4516 681.512 75.4516ZM695.932 58.3051V78H691.836V58.3051H695.932ZM705.946 78.2885C704.426 78.2885 703.119 77.9808 702.022 77.3653C700.932 76.7434 700.092 75.8651 699.503 74.7303C698.913 73.5892 698.618 72.2396 698.618 70.6817C698.618 69.1623 698.913 67.8288 699.503 66.6812C700.092 65.5336 700.923 64.6393 701.993 63.9982C703.07 63.3571 704.333 63.0365 705.782 63.0365C706.757 63.0365 707.664 63.1936 708.504 63.5077C709.35 63.8155 710.087 64.2803 710.716 64.9021C711.35 65.524 711.844 66.3062 712.197 67.2486C712.549 68.1846 712.726 69.2809 712.726 70.5375V71.6626H700.253V69.1238H708.869C708.869 68.534 708.741 68.0115 708.485 67.5563C708.228 67.1011 707.872 66.7453 707.417 66.4889C706.968 66.226 706.446 66.0946 705.85 66.0946C705.228 66.0946 704.676 66.2388 704.196 66.5273C703.721 66.8094 703.349 67.1909 703.08 67.6717C702.811 68.1461 702.673 68.6751 702.667 69.2585V71.6722C702.667 72.4031 702.801 73.0346 703.07 73.5667C703.346 74.0988 703.734 74.5092 704.234 74.7977C704.734 75.0862 705.327 75.2304 706.013 75.2304C706.468 75.2304 706.885 75.1663 707.263 75.0381C707.642 74.9099 707.965 74.7175 708.235 74.4611C708.504 74.2046 708.709 73.8905 708.85 73.5186L712.639 73.7687C712.447 74.6791 712.052 75.474 711.456 76.1536C710.866 76.8268 710.103 77.3525 709.167 77.7307C708.238 78.1026 707.164 78.2885 705.946 78.2885ZM721.744 78V58.3051H725.908V74.5669H734.351V78H721.744ZM741.273 58.3051V78H737.109V58.3051H741.273ZM748.257 58.3051L753.017 73.2686H753.2L757.969 58.3051H762.585L755.796 78H750.43L743.631 58.3051H748.257ZM764.956 78V58.3051H778.227V61.7383H769.12V66.4312H777.544V69.8643H769.12V74.5669H778.265V78H764.956Z" fill="white"/>
<path d="M145.282 55.9864C145.195 55.9864 145.151 55.9573 145.151 55.8991C144.715 55.4628 144.439 54.9248 144.323 54.2849C144.235 53.6451 144.235 52.9616 144.323 52.2345C144.439 51.5074 144.628 50.7657 144.89 50.0095C145.151 49.2533 145.413 48.5407 145.675 47.8718C146.722 45.3124 147.74 42.6948 148.729 40.019C149.718 37.3432 150.605 34.8565 151.39 32.5589C150.081 32.8788 148.845 33.3005 147.682 33.824C146.518 34.3475 145.515 35.0747 144.672 36.0054C144.468 36.2089 144.206 36.4998 143.886 36.8779C143.595 37.256 143.319 37.6632 143.057 38.0994C142.796 38.5066 142.577 38.9283 142.403 39.3646C142.258 39.7718 142.214 40.1063 142.272 40.368C142.214 40.6298 142.068 40.688 141.836 40.5425C141.632 40.3971 141.414 40.1499 141.181 39.8009C140.949 39.4519 140.745 39.0592 140.571 38.623C140.425 38.1576 140.396 37.7359 140.483 37.3578C140.803 35.9908 141.356 34.8274 142.141 33.8677C142.956 32.8788 143.901 32.0499 144.977 31.3809C146.053 30.712 147.202 30.1885 148.423 29.8104C149.645 29.4323 150.837 29.156 152.001 28.9815C152.931 28.807 153.964 28.6906 155.098 28.6325C156.262 28.5743 157.41 28.6034 158.545 28.7197C159.708 28.8361 160.799 29.0687 161.817 29.4177C162.864 29.7377 163.751 30.203 164.478 30.8138C166.078 31.8317 167.183 33.1115 167.794 34.6529C168.404 36.1653 168.637 37.765 168.492 39.4519C168.055 41.3423 167.27 43.2038 166.136 45.0361C165.031 46.8393 163.736 48.5262 162.253 50.0968C160.77 51.6673 159.17 53.0925 157.454 54.3722C155.738 55.6228 154.08 56.6553 152.481 57.4697C152.277 57.6151 152.059 57.746 151.826 57.8623C151.623 57.9495 151.39 58.0659 151.128 58.2113C149.849 58.8221 148.642 59.302 147.507 59.651C146.373 59.9709 145.239 60.1745 144.104 60.2618C142.999 60.3781 141.865 60.3636 140.701 60.2181C139.538 60.0727 138.302 59.7964 136.993 59.3892C136.673 59.2147 136.513 59.0693 136.513 58.953C136.513 58.8366 136.659 58.6767 136.95 58.4731C137.24 58.3276 137.531 58.2113 137.822 58.1241C138.113 58.0368 138.404 57.9786 138.695 57.9495C139.829 57.6296 140.949 57.3679 142.054 57.1643C143.188 56.9316 144.264 56.5826 145.282 56.1172V55.9864ZM146.242 55.681C146.678 55.6519 147.187 55.521 147.769 55.2883C148.351 55.0556 148.947 54.7793 149.558 54.4594C150.168 54.1395 150.75 53.8196 151.303 53.4996C151.855 53.1506 152.306 52.8598 152.655 52.6271C155.127 50.882 157.425 48.977 159.548 46.912C161.7 44.8179 163.416 42.4185 164.696 39.7136C164.871 39.3355 165.031 38.9574 165.176 38.5793C165.321 38.1721 165.423 37.765 165.481 37.3578C165.627 36.4562 165.554 35.7 165.263 35.0892C164.972 34.4493 164.551 33.9258 163.998 33.5186C163.446 33.0824 162.791 32.7479 162.035 32.5152C161.279 32.2826 160.508 32.1226 159.723 32.0353C158.937 31.919 158.167 31.8754 157.41 31.9045C156.683 31.9045 156.058 31.9335 155.535 31.9917C155.447 31.9917 155.404 32.0935 155.404 32.2971V32.8206C154.182 36.8052 152.844 40.717 151.39 44.5562C149.965 48.3662 148.249 52.0745 146.242 55.681ZM171.781 57.3388C171.52 57.5424 171.229 57.775 170.909 58.0368C170.589 58.2695 170.24 58.4876 169.862 58.6912C169.484 58.8657 169.077 59.0111 168.64 59.1275C168.233 59.2147 167.797 59.2147 167.331 59.1275C166.982 59.0693 166.663 58.953 166.372 58.7785C166.081 58.5749 165.805 58.3422 165.543 58.0804C165.281 57.8187 165.121 57.4406 165.063 56.9461C165.005 56.4517 164.99 56.0591 165.019 55.7682C165.165 55.012 165.368 54.2122 165.63 53.3688C165.892 52.5253 166.212 51.6964 166.59 50.882C167.23 49.5442 168.044 48.3517 169.033 47.3047C170.022 46.2576 171.214 45.5887 172.61 45.2978C173.076 45.1815 173.556 45.1669 174.05 45.2542C174.573 45.3124 175.024 45.4723 175.402 45.7341C175.78 45.9959 176.071 46.3303 176.275 46.7375C176.479 47.1156 176.522 47.5373 176.406 48.0027C176.348 48.1772 176.275 48.3517 176.188 48.5262C176.129 48.7007 176.042 48.8461 175.926 48.9625C175.839 49.0788 175.751 49.1515 175.664 49.1806C175.577 49.1806 175.49 49.0933 175.402 48.9188C175.373 48.8316 175.33 48.7152 175.271 48.5698C175.242 48.3953 175.184 48.2354 175.097 48.0899C175.01 47.9154 174.879 47.77 174.704 47.6537C174.559 47.5082 174.355 47.4355 174.094 47.4355C173.541 47.4355 172.916 47.7845 172.218 48.4826C171.52 49.1515 170.851 49.9513 170.211 50.882C169.571 51.7837 169.018 52.6998 168.553 53.6305C168.088 54.5321 167.797 55.2156 167.68 55.681C167.506 56.4372 167.521 56.8443 167.724 56.9025C167.928 56.9316 168.248 56.7716 168.684 56.4226C169.12 56.0445 169.615 55.5355 170.167 54.8957C170.72 54.2558 171.243 53.6305 171.738 53.0197C172.232 52.3799 172.654 51.8273 173.003 51.3619C173.381 50.8675 173.585 50.6057 173.614 50.5767C173.992 50.2858 174.37 50.1549 174.748 50.184C175.126 50.2131 175.446 50.3585 175.708 50.6203C175.999 50.853 176.188 51.1583 176.275 51.5364C176.391 51.8854 176.362 52.249 176.188 52.6271C175.984 53.0925 175.708 53.6451 175.359 54.2849C175.039 54.9248 174.835 55.4919 174.748 55.9864C174.661 56.7425 174.748 57.237 175.01 57.4697C175.271 57.7023 175.751 57.6878 176.449 57.426C177.002 57.1934 177.584 56.7862 178.194 56.2045C178.805 55.5937 179.401 54.9539 179.983 54.2849C180.594 53.616 181.161 52.9761 181.685 52.3653C182.208 51.7546 182.644 51.3038 182.993 51.0129C183.081 50.9257 183.182 50.8384 183.299 50.7512C183.444 50.6348 183.561 50.6057 183.648 50.6639C183.793 50.7221 183.866 50.8093 183.866 50.9257C183.895 51.0129 183.91 51.1147 183.91 51.231C183.531 52.1618 183.081 53.0779 182.557 53.9795C182.034 54.8811 181.437 55.7246 180.768 56.5099C180.129 57.2661 179.401 57.9495 178.587 58.5603C177.802 59.142 176.944 59.6074 176.013 59.9564C175.431 60.16 174.908 60.2181 174.443 60.1309C173.977 60.0727 173.556 59.9127 173.177 59.651C172.799 59.3892 172.494 59.0548 172.261 58.6476C172.029 58.2404 171.869 57.8041 171.781 57.3388ZM212.72 31.2501C212.662 31.2501 212.56 31.2937 212.414 31.3809C212.269 31.4682 212.109 31.57 211.935 31.6863C211.76 31.7736 211.6 31.8608 211.455 31.9481C211.309 32.0353 211.222 32.079 211.193 32.079C210.786 32.3116 210.379 32.5298 209.971 32.7334C209.593 32.937 209.23 33.1551 208.881 33.3878C207.194 34.4639 205.609 35.6127 204.125 36.8343C202.671 38.0558 201.333 39.3792 200.112 40.8043C199.297 41.735 198.541 42.7384 197.843 43.8145C197.145 44.8616 196.534 45.9668 196.011 47.1301C195.516 48.2644 195.124 49.4278 194.833 50.6203C194.571 51.8127 194.455 53.0052 194.484 54.1977C194.513 55.0702 194.615 55.8991 194.789 56.6844C194.964 57.4406 195.255 58.0223 195.662 58.4294C196.302 59.0402 197.058 59.3311 197.93 59.302C198.832 59.2438 199.792 58.982 200.81 58.5167C201.857 58.0223 202.947 57.3533 204.082 56.5099C205.216 55.6664 206.321 54.7503 207.397 53.7614C208.503 52.7434 209.55 51.6964 210.539 50.6203C211.556 49.5151 212.473 48.468 213.287 47.4792C213.491 47.3047 213.68 47.0574 213.854 46.7375C214.058 46.4176 214.276 46.1558 214.509 45.9522C214.741 45.8068 214.93 45.8504 215.076 46.0831C215.25 46.3158 215.337 46.5485 215.337 46.7811C215.279 48.0318 215.003 49.1806 214.509 50.2276C214.043 51.2456 213.476 52.1908 212.807 53.0634C211.993 54.1104 211.033 55.1574 209.928 56.2045C208.823 57.2224 207.645 58.1531 206.394 58.9966C205.143 59.84 203.849 60.5235 202.511 61.047C201.173 61.5706 199.879 61.8323 198.628 61.8323C197.523 61.8323 196.563 61.6433 195.749 61.2652C194.964 60.8871 194.28 60.3926 193.699 59.7819C193.146 59.142 192.681 58.4149 192.303 57.6005C191.954 56.7862 191.677 55.9282 191.474 55.0266C191.416 54.7648 191.372 54.474 191.343 54.154C191.285 53.805 191.256 53.4705 191.256 53.1506C191.256 51.6382 191.401 50.2422 191.692 48.9625C192.012 47.6537 192.39 46.3885 192.826 45.1669C193.001 44.6143 193.233 44.0763 193.524 43.5528C194.368 41.7786 195.444 40.0772 196.752 38.4485C198.09 36.7906 199.559 35.2928 201.159 33.9549C202.788 32.5879 204.503 31.3955 206.307 30.3775C208.11 29.3596 209.928 28.5888 211.76 28.0653C212.254 27.8908 212.734 27.8908 213.2 28.0653C213.345 28.1235 213.491 28.1526 213.636 28.1526C213.781 28.1526 213.941 28.0799 214.116 27.9344C214.552 27.6727 215.003 27.6581 215.468 27.8908C215.963 28.1235 216.239 28.5307 216.297 29.1124C216.384 29.9267 216.283 30.7265 215.992 31.5118C215.788 32.2098 215.57 32.8642 215.337 33.475C215.134 34.0858 214.916 34.7111 214.683 35.351C214.45 35.9617 214.232 36.6307 214.029 37.3578C213.825 38.0849 213.651 38.9138 213.505 39.8445C213.476 39.9899 213.418 40.1644 213.331 40.368C213.272 40.5425 213.2 40.6589 213.112 40.717C212.967 40.9788 212.763 41.1388 212.502 41.1969C212.269 41.226 212.051 41.1242 211.847 40.8915C211.789 40.8043 211.716 40.717 211.629 40.6298C211.571 40.5425 211.513 40.4407 211.455 40.3244C211.164 39.6555 210.975 38.8993 210.888 38.0558C210.829 37.2124 210.844 36.3689 210.931 35.5255C211.047 34.6529 211.251 33.8531 211.542 33.126C211.862 32.3698 212.254 31.7445 212.72 31.2501ZM228.527 47.4792C227.422 47.9736 226.404 48.7152 225.473 49.7041C224.542 50.6639 223.655 51.74 222.812 52.9325C221.998 54.1249 221.198 55.361 220.412 56.6408C219.627 57.9205 218.842 59.1129 218.057 60.2181C217.824 60.4799 217.548 60.5526 217.228 60.4363C216.908 60.3199 216.704 60.1018 216.617 59.7819C216.53 59.4329 216.559 59.0693 216.704 58.6912C216.908 57.9932 217.111 57.2079 217.315 56.3354C217.489 55.4628 217.664 54.5467 217.838 53.5869C218.013 52.6271 218.187 51.6673 218.362 50.7075C218.566 49.7477 218.769 48.8316 218.973 47.9591C219.031 47.7264 219.162 47.5519 219.365 47.4355C219.598 47.2901 219.845 47.2174 220.107 47.2174C220.369 47.1883 220.601 47.2319 220.805 47.3483C221.009 47.4646 221.14 47.6391 221.198 47.8718C221.314 48.4535 221.27 49.1515 221.067 49.9659C220.892 50.7802 220.689 51.5801 220.456 52.3653C220.98 51.7255 221.547 50.9838 222.157 50.1404C222.797 49.2679 223.481 48.468 224.208 47.7409C224.964 46.9847 225.749 46.374 226.564 45.9086C227.407 45.4142 228.28 45.2106 229.181 45.2978C229.647 45.4433 230.01 45.6905 230.272 46.0395C230.563 46.3594 230.781 46.7375 230.926 47.1738C231.072 47.581 231.145 47.9881 231.145 48.3953C231.174 48.8025 231.145 49.1515 231.057 49.4424C230.854 49.8495 230.607 50.3003 230.316 50.7948C230.054 51.2601 229.836 51.74 229.661 52.2345C229.516 52.7289 229.458 53.2233 229.487 53.7178C229.516 54.1831 229.749 54.6048 230.185 54.9829C230.359 55.2156 230.345 55.3901 230.141 55.5065C229.938 55.6228 229.661 55.6955 229.312 55.7246C228.963 55.7246 228.614 55.681 228.265 55.5937C227.916 55.5065 227.669 55.3756 227.524 55.2011C227.058 54.5612 226.767 53.9214 226.651 53.2815C226.564 52.6126 226.593 51.9436 226.738 51.2747C226.884 50.6057 227.116 49.9513 227.436 49.3115C227.756 48.6716 228.12 48.0608 228.527 47.4792ZM238.499 57.3388C238.238 57.5424 237.947 57.775 237.627 58.0368C237.307 58.2695 236.958 58.4876 236.58 58.6912C236.202 58.8657 235.795 59.0111 235.358 59.1275C234.951 59.2147 234.515 59.2147 234.05 59.1275C233.7 59.0693 233.381 58.953 233.09 58.7785C232.799 58.5749 232.523 58.3422 232.261 58.0804C231.999 57.8187 231.839 57.4406 231.781 56.9461C231.723 56.4517 231.708 56.0591 231.737 55.7682C231.883 55.012 232.086 54.2122 232.348 53.3688C232.61 52.5253 232.93 51.6964 233.308 50.882C233.948 49.5442 234.762 48.3517 235.751 47.3047C236.74 46.2576 237.932 45.5887 239.328 45.2978C239.794 45.1815 240.274 45.1669 240.768 45.2542C241.292 45.3124 241.742 45.4723 242.12 45.7341C242.499 45.9959 242.789 46.3303 242.993 46.7375C243.197 47.1156 243.24 47.5373 243.124 48.0027C243.066 48.1772 242.993 48.3517 242.906 48.5262C242.848 48.7007 242.76 48.8461 242.644 48.9625C242.557 49.0788 242.469 49.1515 242.382 49.1806C242.295 49.1806 242.208 49.0933 242.12 48.9188C242.091 48.8316 242.048 48.7152 241.99 48.5698C241.96 48.3953 241.902 48.2354 241.815 48.0899C241.728 47.9154 241.597 47.77 241.422 47.6537C241.277 47.5082 241.073 47.4355 240.812 47.4355C240.259 47.4355 239.634 47.7845 238.936 48.4826C238.238 49.1515 237.569 49.9513 236.929 50.882C236.289 51.7837 235.736 52.6998 235.271 53.6305C234.806 54.5321 234.515 55.2156 234.399 55.681C234.224 56.4372 234.239 56.8443 234.442 56.9025C234.646 56.9316 234.966 56.7716 235.402 56.4226C235.838 56.0445 236.333 55.5355 236.885 54.8957C237.438 54.2558 237.961 53.6305 238.456 53.0197C238.95 52.3799 239.372 51.8273 239.721 51.3619C240.099 50.8675 240.303 50.6057 240.332 50.5767C240.71 50.2858 241.088 50.1549 241.466 50.184C241.844 50.2131 242.164 50.3585 242.426 50.6203C242.717 50.853 242.906 51.1583 242.993 51.5364C243.109 51.8854 243.08 52.249 242.906 52.6271C242.702 53.0925 242.426 53.6451 242.077 54.2849C241.757 54.9248 241.553 55.4919 241.466 55.9864C241.379 56.7425 241.466 57.237 241.728 57.4697C241.99 57.7023 242.469 57.6878 243.167 57.426C243.72 57.1934 244.302 56.7862 244.913 56.2045C245.523 55.5937 246.12 54.9539 246.701 54.2849C247.312 53.616 247.879 52.9761 248.403 52.3653C248.926 51.7546 249.362 51.3038 249.711 51.0129C249.799 50.9257 249.901 50.8384 250.017 50.7512C250.162 50.6348 250.279 50.6057 250.366 50.6639C250.511 50.7221 250.584 50.8093 250.584 50.9257C250.613 51.0129 250.628 51.1147 250.628 51.231C250.25 52.1618 249.799 53.0779 249.275 53.9795C248.752 54.8811 248.155 55.7246 247.487 56.5099C246.847 57.2661 246.12 57.9495 245.305 58.5603C244.52 59.142 243.662 59.6074 242.731 59.9564C242.15 60.16 241.626 60.2181 241.161 60.1309C240.695 60.0727 240.274 59.9127 239.895 59.651C239.517 59.3892 239.212 59.0548 238.979 58.6476C238.747 58.2404 238.587 57.8041 238.499 57.3388ZM256.744 57.2515C256.162 56.8443 255.551 56.6408 254.911 56.6408C254.271 56.6117 253.617 56.6698 252.948 56.8153C252.861 56.8443 252.715 56.8589 252.512 56.8589C252.25 56.8589 252.032 56.7862 251.857 56.6408C251.683 56.4662 251.552 56.2772 251.465 56.0736C251.407 55.8409 251.407 55.6083 251.465 55.3756C251.523 55.1429 251.654 54.9539 251.857 54.8084C252.235 54.314 252.643 53.7614 253.079 53.1506C253.544 52.5398 254.01 51.9291 254.475 51.3183C254.94 50.6784 255.362 50.0531 255.74 49.4424C256.147 48.8025 256.482 48.2063 256.744 47.6537C256.075 47.4501 255.406 47.5664 254.737 48.0027C254.068 48.4389 253.442 49.0206 252.861 49.7477C252.279 50.4458 251.77 51.202 251.334 52.0163C250.927 52.8016 250.621 53.456 250.418 53.9795C250.243 54.4449 250.01 54.6194 249.72 54.503C249.429 54.3867 249.211 54.1977 249.065 53.9359C248.833 53.5578 248.745 53.107 248.803 52.5835C248.862 52.06 248.993 51.5364 249.196 51.0129C249.371 50.4894 249.589 49.995 249.851 49.5296C250.141 49.0643 250.403 48.6716 250.636 48.3517C251.305 47.4501 252.075 46.7957 252.948 46.3885C253.85 45.9522 254.838 45.6614 255.915 45.516C256.351 45.4578 256.729 45.5014 257.049 45.6468C257.398 45.7923 257.689 46.0249 257.921 46.3449C258.154 46.6357 258.329 46.9993 258.445 47.4355C258.59 47.8427 258.678 48.279 258.707 48.7443C258.649 49.675 258.401 50.6057 257.965 51.5364C257.558 52.4381 256.976 53.3106 256.22 54.154C256.714 54.1831 257.209 54.2849 257.703 54.4594C258.227 54.6048 258.692 54.8957 259.099 55.332C259.972 54.663 260.961 53.9941 262.066 53.3251C263.171 52.6562 264.189 52.1327 265.12 51.7546C265.294 51.6673 265.542 51.6382 265.861 51.6673C266.21 51.6964 266.516 51.7546 266.778 51.8418C267.039 51.9291 267.214 52.0454 267.301 52.1908C267.388 52.3072 267.272 52.4235 266.952 52.5398C266.574 52.6853 266.08 52.9179 265.469 53.2379C264.858 53.5287 264.233 53.8777 263.593 54.2849C262.953 54.663 262.328 55.0702 261.717 55.5065C261.135 55.9136 260.684 56.3208 260.365 56.728C260.917 57.6878 261.31 58.6039 261.542 59.4765C261.804 60.3199 261.877 61.2652 261.761 62.3122C261.586 63.9991 261.106 65.8169 260.321 67.7655C259.565 69.7142 258.59 71.5756 257.398 73.3497C256.235 75.153 254.926 76.7672 253.472 78.1923C252.017 79.6465 250.549 80.6936 249.065 81.3334C248.774 81.4498 248.469 81.4934 248.149 81.4643C247.8 81.4643 247.466 81.3916 247.146 81.2462C246.826 81.1298 246.535 80.9553 246.273 80.7226C246.011 80.5191 245.793 80.2718 245.619 79.981C245.299 79.283 245.153 78.6867 245.182 78.1923C245.182 77.7269 245.299 77.1162 245.531 76.36C245.939 74.9348 246.535 73.3207 247.32 71.5174C248.076 69.7142 248.949 67.911 249.938 66.1077C250.956 64.3045 252.046 62.6176 253.21 61.047C254.373 59.4765 255.551 58.2113 256.744 57.2515ZM257.703 58.5603C256.598 59.84 255.522 61.2506 254.475 62.7921C253.457 64.3336 252.483 65.9187 251.552 67.5474C250.65 69.1761 249.821 70.7903 249.065 72.39C248.309 74.0187 247.669 75.5456 247.146 76.9708C247.058 77.2034 247.102 77.3634 247.277 77.4506C247.422 77.5379 247.669 77.5234 248.018 77.407C248.571 77.2325 249.225 76.7672 249.981 76.011C250.738 75.2839 251.523 74.3677 252.337 73.2625C253.152 72.1573 253.937 70.9357 254.693 69.5979C255.478 68.2891 256.133 66.9657 256.656 65.6278C257.18 64.29 257.558 62.9957 257.791 61.7451C258.023 60.5235 257.994 59.4619 257.703 58.5603ZM268.143 58.8221C267.387 58.9675 266.675 58.8512 266.006 58.4731C265.366 58.095 264.973 57.5278 264.828 56.7716C264.711 56.1318 264.653 55.4047 264.653 54.5903C264.653 53.7759 264.697 52.9616 264.784 52.1472C264.871 51.3038 264.988 50.4894 265.133 49.7041C265.308 48.9188 265.482 48.2208 265.657 47.61C265.802 47.3483 266.02 47.2174 266.311 47.2174C266.631 47.2174 266.951 47.2901 267.271 47.4355C267.62 47.5519 267.911 47.7118 268.143 47.9154C268.405 48.119 268.565 48.3226 268.623 48.5262C268.711 48.9043 268.623 49.5151 268.362 50.3585C268.129 51.1729 267.867 52.0309 267.576 52.9325C267.285 53.8341 267.053 54.6776 266.878 55.4628C266.704 56.219 266.733 56.6989 266.965 56.9025C267.169 57.1061 267.431 57.0625 267.751 56.7716C268.1 56.4517 268.463 56.0009 268.841 55.4192C269.219 54.8084 269.612 54.1104 270.019 53.3251C270.426 52.5108 270.819 51.7109 271.197 50.9257C271.604 50.1404 271.968 49.4133 272.288 48.7443C272.608 48.0754 272.87 47.5664 273.073 47.2174C273.131 47.1011 273.262 47.0574 273.466 47.0865C273.698 47.0865 273.931 47.1447 274.164 47.261C274.397 47.3774 274.615 47.5373 274.818 47.7409C275.022 47.9154 275.153 48.119 275.211 48.3517C275.473 49.3696 275.56 50.4749 275.473 51.6673C275.385 52.8307 275.225 53.9359 274.993 54.9829C276.069 54.1395 277.116 53.3833 278.134 52.7144C279.181 52.0454 280.301 51.4492 281.493 50.9257C281.609 50.8384 281.828 50.7802 282.148 50.7512C282.497 50.693 282.787 50.6784 283.02 50.7075C283.253 50.7366 283.369 50.8384 283.369 51.0129C283.398 51.1583 283.136 51.4056 282.584 51.7546C281.246 52.598 279.893 53.5578 278.527 54.6339C277.16 55.71 275.88 56.728 274.687 57.6878C274.484 57.8332 274.353 58.0659 274.295 58.3858C274.062 60.0145 273.655 61.8178 273.073 63.7955C272.491 65.7733 271.779 67.7655 270.935 69.7724C270.121 71.7792 269.19 73.6842 268.143 75.4875C267.125 77.3198 266.049 78.8903 264.915 80.1991C264.188 81.0426 263.417 81.6243 262.603 81.9442C261.788 82.2932 261.047 82.3805 260.378 82.2059C259.68 82.0314 259.113 81.5952 258.676 80.8972C258.211 80.2282 257.964 79.2975 257.935 78.105C258.313 76.3018 258.924 74.5422 259.767 72.8262C260.611 71.1393 261.628 69.467 262.821 67.8092C263.984 66.1804 265.279 64.5372 266.704 62.8794C268.129 61.2506 269.627 59.5928 271.197 57.9059C271.401 57.7605 271.59 57.426 271.764 56.9025C271.939 56.3499 272.084 55.7682 272.201 55.1574C272.317 54.5467 272.39 53.9795 272.419 53.456C272.477 52.9034 272.477 52.5689 272.419 52.4526C272.128 52.9761 271.808 53.6014 271.459 54.3285C271.11 55.0266 270.746 55.71 270.368 56.379C269.99 57.0188 269.612 57.586 269.234 58.0804C268.856 58.5458 268.492 58.793 268.143 58.8221ZM259.985 79.8937C260.305 80.0101 260.77 79.6901 261.381 78.934C261.992 78.2068 262.675 77.218 263.432 75.9673C264.188 74.7458 264.959 73.3643 265.744 71.8228C266.529 70.3104 267.242 68.8271 267.882 67.3729C268.551 65.9478 269.103 64.6535 269.539 63.4901C269.976 62.3268 270.208 61.4978 270.237 61.0034C269.481 61.8178 268.652 62.7921 267.751 63.9264C266.849 65.0898 265.962 66.2968 265.09 67.5474C264.217 68.8271 263.403 70.1214 262.646 71.4302C261.861 72.739 261.221 73.9605 260.727 75.0948C260.203 76.2291 259.869 77.218 259.723 78.0614C259.549 78.934 259.636 79.5447 259.985 79.8937ZM307.999 44.338C306.254 44.6289 304.64 44.9343 303.157 45.2542C301.703 45.545 300.234 45.8504 298.751 46.1704C298.663 46.1704 298.576 46.1994 298.489 46.2576C298.431 46.2867 298.416 46.3449 298.445 46.4321C297.951 47.3919 297.456 48.4826 296.962 49.7041C296.467 50.8966 295.987 52.1327 295.522 53.4124C295.057 54.663 294.606 55.8991 294.17 57.1206C293.763 58.3422 293.37 59.4474 292.992 60.4363C292.875 60.698 292.745 61.047 292.599 61.4833C292.454 61.9487 292.308 62.3995 292.163 62.8357C292.017 63.272 291.872 63.6356 291.727 63.9264C291.581 64.2172 291.465 64.319 291.378 64.2318C291.116 64.2609 290.883 64.1591 290.68 63.9264C290.476 63.6937 290.301 63.3883 290.156 63.0102C289.749 61.9341 289.618 60.7417 289.763 59.4329C289.938 58.1241 290.243 56.7862 290.68 55.4192C291.116 54.0232 291.61 52.6416 292.163 51.2747C292.745 49.9077 293.239 48.6571 293.646 47.5228L292.425 47.6973C292.076 47.8427 291.683 47.7991 291.247 47.5664C290.84 47.3047 290.491 46.9847 290.2 46.6066C289.909 46.2285 289.72 45.8504 289.633 45.4723C289.545 45.0652 289.662 44.7743 289.982 44.5998C289.923 44.658 290.083 44.6434 290.461 44.5562C290.84 44.4398 291.305 44.309 291.857 44.1635C292.439 44.0181 293.05 43.8582 293.69 43.6836C294.33 43.5091 294.882 43.3492 295.348 43.2038C295.58 43.1456 295.74 43.0292 295.828 42.8547C295.915 42.6802 296.031 42.4766 296.177 42.244C296.409 41.8659 296.729 41.2987 297.136 40.5425C297.544 39.7572 297.98 38.8993 298.445 37.9686C298.91 37.0379 299.361 36.0926 299.798 35.1328C300.263 34.173 300.67 33.3005 301.019 32.5152C301.397 31.7009 301.688 31.0465 301.892 30.552C302.095 30.0285 302.182 29.7668 302.153 29.7668L301.804 29.8104C301.484 29.9267 301.048 30.1158 300.496 30.3775C299.972 30.6393 299.39 30.9592 298.751 31.3373C298.111 31.7154 297.456 32.1371 296.787 32.6025C296.118 33.0387 295.493 33.475 294.911 33.9113C294.359 34.3475 293.864 34.7693 293.428 35.1765C293.021 35.5836 292.745 35.9326 292.599 36.2235C291.988 36.0199 291.683 35.6563 291.683 35.1328C291.712 34.6093 291.857 34.0712 292.119 33.5186C292.41 32.937 292.745 32.4134 293.123 31.9481C293.501 31.4536 293.777 31.1337 293.952 30.9883C294.446 30.5811 295.042 30.1449 295.74 29.6795C296.467 29.1851 297.209 28.7488 297.965 28.3707C298.751 27.9926 299.521 27.6872 300.277 27.4545C301.063 27.2219 301.775 27.1492 302.415 27.2364H302.502C303.113 27.2364 303.68 27.4982 304.204 28.0217C304.727 28.5161 305.047 29.0396 305.164 29.5922C305.309 30.1739 305.324 30.7411 305.207 31.2937C305.091 31.8463 304.931 32.4134 304.727 32.9951C304.146 34.2167 303.651 35.2782 303.244 36.1799C302.837 37.0815 302.473 37.8668 302.153 38.5357C301.863 39.2046 301.586 39.8154 301.324 40.368C301.092 40.8915 300.845 41.386 300.583 41.8513H300.67C301.63 41.6477 302.473 41.4878 303.2 41.3714C303.928 41.226 304.626 41.1097 305.294 41.0224C305.993 40.9352 306.705 40.8625 307.432 40.8043C308.159 40.717 309.003 40.6298 309.963 40.5425C310.282 40.5425 310.472 40.4116 310.53 40.1499C311.111 38.6084 311.708 37.1397 312.318 35.7436C312.958 34.3475 313.613 32.9515 314.282 31.5554L314.805 30.3339C315.009 29.8976 315.285 29.694 315.634 29.7231C315.983 29.7231 316.317 29.854 316.637 30.1158C316.957 30.3484 317.219 30.6538 317.423 31.0319C317.655 31.3809 317.757 31.7009 317.728 31.9917C317.641 32.3989 317.524 32.6897 317.379 32.8642C317.263 33.0097 317.161 33.2714 317.074 33.6495C316.579 34.9583 316.099 36.1944 315.634 37.3578C315.169 38.5212 314.66 39.6555 314.107 40.7607C314.165 40.7607 314.223 40.7752 314.282 40.8043C314.34 40.8043 314.398 40.8043 314.456 40.8043C314.631 40.8334 314.98 40.9061 315.503 41.0224C316.027 41.1388 316.507 41.2696 316.943 41.4151C317.205 41.5314 317.379 41.7059 317.466 41.9386C317.583 42.1422 317.612 42.3458 317.554 42.5494C317.524 42.7529 317.423 42.942 317.248 43.1165C317.103 43.2619 316.899 43.3346 316.637 43.3346C316.143 43.3637 315.75 43.3928 315.46 43.4219C315.198 43.451 314.951 43.4801 314.718 43.5091C314.514 43.5382 314.296 43.5818 314.063 43.64C313.831 43.6691 313.496 43.7127 313.06 43.7709C312.827 43.8872 312.711 43.989 312.711 44.0763C312.158 45.4142 311.591 46.8538 311.01 48.3953C310.428 49.9368 309.846 51.5074 309.265 53.107C308.712 54.6776 308.174 56.2336 307.65 57.775C307.127 59.2874 306.632 60.7126 306.167 62.0505C306.022 62.3995 305.803 62.5303 305.513 62.4431C305.222 62.3558 304.96 62.1522 304.727 61.8323C304.437 61.4833 304.306 60.8725 304.335 60C304.364 59.0984 304.466 58.1531 304.64 57.1643C304.815 56.1463 305.018 55.1865 305.251 54.2849C305.484 53.3833 305.658 52.7289 305.774 52.3217C306.211 50.6639 306.705 49.1515 307.258 47.7845C307.839 46.3885 308.334 45.2106 308.741 44.2508C308.625 44.2508 308.508 44.2653 308.392 44.2944C308.276 44.2944 308.145 44.309 307.999 44.338ZM321.45 57.3388C321.188 57.5424 320.897 57.775 320.577 58.0368C320.257 58.2695 319.908 58.4876 319.53 58.6912C319.152 58.8657 318.745 59.0111 318.309 59.1275C317.901 59.2147 317.465 59.2147 317 59.1275C316.651 59.0693 316.331 58.953 316.04 58.7785C315.749 58.5749 315.473 58.3422 315.211 58.0804C314.949 57.8187 314.789 57.4406 314.731 56.9461C314.673 56.4517 314.658 56.0591 314.688 55.7682C314.833 55.012 315.037 54.2122 315.298 53.3688C315.56 52.5253 315.88 51.6964 316.258 50.882C316.898 49.5442 317.712 48.3517 318.701 47.3047C319.69 46.2576 320.882 45.5887 322.279 45.2978C322.744 45.1815 323.224 45.1669 323.718 45.2542C324.242 45.3124 324.693 45.4723 325.071 45.7341C325.449 45.9959 325.74 46.3303 325.943 46.7375C326.147 47.1156 326.19 47.5373 326.074 48.0027C326.016 48.1772 325.943 48.3517 325.856 48.5262C325.798 48.7007 325.711 48.8461 325.594 48.9625C325.507 49.0788 325.42 49.1515 325.332 49.1806C325.245 49.1806 325.158 49.0933 325.071 48.9188C325.042 48.8316 324.998 48.7152 324.94 48.5698C324.911 48.3953 324.853 48.2354 324.765 48.0899C324.678 47.9154 324.547 47.77 324.373 47.6537C324.227 47.5082 324.024 47.4355 323.762 47.4355C323.209 47.4355 322.584 47.7845 321.886 48.4826C321.188 49.1515 320.519 49.9513 319.879 50.882C319.239 51.7837 318.687 52.6998 318.221 53.6305C317.756 54.5321 317.465 55.2156 317.349 55.681C317.174 56.4372 317.189 56.8443 317.392 56.9025C317.596 56.9316 317.916 56.7716 318.352 56.4226C318.788 56.0445 319.283 55.5355 319.835 54.8957C320.388 54.2558 320.912 53.6305 321.406 53.0197C321.9 52.3799 322.322 51.8273 322.671 51.3619C323.049 50.8675 323.253 50.6057 323.282 50.5767C323.66 50.2858 324.038 50.1549 324.416 50.184C324.794 50.2131 325.114 50.3585 325.376 50.6203C325.667 50.853 325.856 51.1583 325.943 51.5364C326.06 51.8854 326.03 52.249 325.856 52.6271C325.652 53.0925 325.376 53.6451 325.027 54.2849C324.707 54.9248 324.504 55.4919 324.416 55.9864C324.329 56.7425 324.416 57.237 324.678 57.4697C324.94 57.7023 325.42 57.6878 326.118 57.426C326.67 57.1934 327.252 56.7862 327.863 56.2045C328.474 55.5937 329.07 54.9539 329.651 54.2849C330.262 53.616 330.829 52.9761 331.353 52.3653C331.876 51.7546 332.313 51.3038 332.662 51.0129C332.749 50.9257 332.851 50.8384 332.967 50.7512C333.112 50.6348 333.229 50.6057 333.316 50.6639C333.462 50.7221 333.534 50.8093 333.534 50.9257C333.563 51.0129 333.578 51.1147 333.578 51.231C333.2 52.1618 332.749 53.0779 332.225 53.9795C331.702 54.8811 331.106 55.7246 330.437 56.5099C329.797 57.2661 329.07 57.9495 328.255 58.5603C327.47 59.142 326.612 59.6074 325.681 59.9564C325.1 60.16 324.576 60.2181 324.111 60.1309C323.646 60.0727 323.224 59.9127 322.846 59.651C322.468 59.3892 322.162 59.0548 321.93 58.6476C321.697 58.2404 321.537 57.8041 321.45 57.3388ZM353.96 50.7075C353.436 51.0565 352.884 51.3038 352.302 51.4492C351.72 51.5655 351.138 51.5946 350.557 51.5364C349.975 51.4492 349.408 51.2892 348.855 51.0565C348.303 50.8239 347.808 50.5185 347.372 50.1404C347.11 50.9838 346.805 51.9 346.456 52.8889C346.136 53.8777 345.758 54.8084 345.322 55.681C344.885 56.5535 344.376 57.3242 343.795 57.9932C343.213 58.6621 342.544 59.0984 341.788 59.302C341.613 59.3892 341.395 59.4038 341.133 59.3456C340.872 59.2874 340.595 59.1856 340.305 59.0402C340.043 58.8657 339.796 58.6767 339.563 58.4731C339.33 58.2695 339.141 58.0659 338.996 57.8623C338.763 57.5424 338.603 57.1788 338.516 56.7716C338.458 56.3354 338.429 55.8991 338.429 55.4628C338.429 54.9975 338.458 54.5612 338.516 54.154C338.574 53.7178 338.603 53.3397 338.603 53.0197C338.429 53.2815 338.152 53.7614 337.774 54.4594C337.396 55.1284 336.974 55.8264 336.509 56.5535C336.073 57.2515 335.622 57.8768 335.157 58.4294C334.691 58.953 334.313 59.2002 334.022 59.1711C333.528 59.1129 333.077 58.953 332.67 58.6912C332.292 58.4004 332.015 58.0513 331.841 57.6442C331.666 57.2079 331.623 56.5244 331.71 55.5937C331.797 54.663 331.957 53.6887 332.19 52.6707C332.394 51.6528 332.612 50.693 332.844 49.7914C333.077 48.8898 333.252 48.2208 333.368 47.7845C333.368 47.5228 333.513 47.4064 333.804 47.4355C334.124 47.4646 334.459 47.5955 334.808 47.8282C335.157 48.0318 335.447 48.3372 335.68 48.7443C335.942 49.1224 336.029 49.5587 335.942 50.0531C335.796 50.7512 335.651 51.391 335.506 51.9727C335.389 52.5544 335.244 53.1215 335.069 53.6741C334.924 54.1977 334.749 54.7503 334.546 55.332C334.371 55.9136 334.168 56.5535 333.935 57.2515C334.022 57.426 334.255 57.2661 334.633 56.7716C335.011 56.2481 335.418 55.6228 335.855 54.8957C336.291 54.1395 336.713 53.3688 337.12 52.5835C337.527 51.7982 337.832 51.231 338.036 50.882C338.24 50.6203 338.356 50.344 338.385 50.0531C338.414 49.7623 338.501 49.4714 338.647 49.1806C338.821 48.9188 339.039 48.8025 339.301 48.8316C339.563 48.8607 339.825 48.9625 340.086 49.137C340.348 49.2824 340.566 49.4569 340.741 49.6605C340.944 49.835 341.061 49.9513 341.09 50.0095C341.264 50.3585 341.308 50.8675 341.221 51.5364C341.133 52.1763 341.032 52.8743 340.915 53.6305C340.799 54.3576 340.697 55.0847 340.61 55.8118C340.552 56.5099 340.639 57.0625 340.872 57.4697C340.959 57.5278 341.075 57.5715 341.221 57.6005C341.366 57.6005 341.512 57.4842 341.657 57.2515C342.035 56.5826 342.428 55.71 342.835 54.6339C343.271 53.5578 343.664 52.4381 344.013 51.2747C344.362 50.0822 344.653 48.9334 344.885 47.8282C345.118 46.6939 345.234 45.7486 345.234 44.9924C345.234 44.6143 345.365 44.3817 345.627 44.2944C345.918 44.2072 346.223 44.2508 346.543 44.4253C346.863 44.5707 347.154 44.8034 347.416 45.1233C347.707 45.4433 347.852 45.8213 347.852 46.2576C347.852 47.1011 348.041 47.7991 348.419 48.3517C348.826 48.9043 349.335 49.3406 349.946 49.6605C350.557 49.9513 351.211 50.1404 351.909 50.2276C352.636 50.2858 353.32 50.2567 353.96 50.1404C354.134 50.1113 354.236 50.1258 354.265 50.184C354.294 50.2131 354.28 50.2713 354.221 50.3585C354.192 50.4458 354.134 50.533 354.047 50.6203C353.989 50.6784 353.96 50.7075 353.96 50.7075ZM358.217 57.3388C357.955 57.5424 357.664 57.775 357.344 58.0368C357.025 58.2695 356.676 58.4876 356.297 58.6912C355.919 58.8657 355.512 59.0111 355.076 59.1275C354.669 59.2147 354.232 59.2147 353.767 59.1275C353.418 59.0693 353.098 58.953 352.807 58.7785C352.516 58.5749 352.24 58.3422 351.978 58.0804C351.717 57.8187 351.557 57.4406 351.498 56.9461C351.44 56.4517 351.426 56.0591 351.455 55.7682C351.6 55.012 351.804 54.2122 352.066 53.3688C352.327 52.5253 352.647 51.6964 353.025 50.882C353.665 49.5442 354.48 48.3517 355.469 47.3047C356.457 46.2576 357.65 45.5887 359.046 45.2978C359.511 45.1815 359.991 45.1669 360.486 45.2542C361.009 45.3124 361.46 45.4723 361.838 45.7341C362.216 45.9959 362.507 46.3303 362.711 46.7375C362.914 47.1156 362.958 47.5373 362.841 48.0027C362.783 48.1772 362.711 48.3517 362.623 48.5262C362.565 48.7007 362.478 48.8461 362.362 48.9625C362.274 49.0788 362.187 49.1515 362.1 49.1806C362.013 49.1806 361.925 49.0933 361.838 48.9188C361.809 48.8316 361.765 48.7152 361.707 48.5698C361.678 48.3953 361.62 48.2354 361.533 48.0899C361.445 47.9154 361.314 47.77 361.14 47.6537C360.995 47.5082 360.791 47.4355 360.529 47.4355C359.977 47.4355 359.351 47.7845 358.653 48.4826C357.955 49.1515 357.286 49.9513 356.646 50.882C356.007 51.7837 355.454 52.6998 354.989 53.6305C354.523 54.5321 354.232 55.2156 354.116 55.681C353.942 56.4372 353.956 56.8443 354.16 56.9025C354.363 56.9316 354.683 56.7716 355.119 56.4226C355.556 56.0445 356.05 55.5355 356.603 54.8957C357.155 54.2558 357.679 53.6305 358.173 53.0197C358.668 52.3799 359.09 51.8273 359.439 51.3619C359.817 50.8675 360.02 50.6057 360.049 50.5767C360.427 50.2858 360.806 50.1549 361.184 50.184C361.562 50.2131 361.882 50.3585 362.143 50.6203C362.434 50.853 362.623 51.1583 362.711 51.5364C362.827 51.8854 362.798 52.249 362.623 52.6271C362.42 53.0925 362.143 53.6451 361.794 54.2849C361.474 54.9248 361.271 55.4919 361.184 55.9864C361.096 56.7425 361.184 57.237 361.445 57.4697C361.707 57.7023 362.187 57.6878 362.885 57.426C363.438 57.1934 364.019 56.7862 364.63 56.2045C365.241 55.5937 365.837 54.9539 366.419 54.2849C367.03 53.616 367.597 52.9761 368.12 52.3653C368.644 51.7546 369.08 51.3038 369.429 51.0129C369.516 50.9257 369.618 50.8384 369.734 50.7512C369.88 50.6348 369.996 50.6057 370.083 50.6639C370.229 50.7221 370.302 50.8093 370.302 50.9257C370.331 51.0129 370.345 51.1147 370.345 51.231C369.967 52.1618 369.516 53.0779 368.993 53.9795C368.469 54.8811 367.873 55.7246 367.204 56.5099C366.564 57.2661 365.837 57.9495 365.023 58.5603C364.237 59.142 363.379 59.6074 362.449 59.9564C361.867 60.16 361.344 60.2181 360.878 60.1309C360.413 60.0727 359.991 59.9127 359.613 59.651C359.235 59.3892 358.93 59.0548 358.697 58.6476C358.464 58.2404 358.304 57.8041 358.217 57.3388ZM378.904 50.7948L379.428 50.2713H379.471V50.3585C379.529 51.0275 379.471 51.5364 379.297 51.8854C379.122 52.2054 379.035 52.3799 379.035 52.409C378.744 52.8452 378.352 53.4124 377.857 54.1104C377.363 54.7793 376.839 55.4774 376.287 56.2045C375.763 56.9025 375.254 57.5569 374.76 58.1677C374.265 58.7494 373.873 59.1711 373.582 59.4329C373.233 59.84 372.855 60.2181 372.447 60.5671C372.302 60.6835 372.098 60.7853 371.837 60.8725C371.604 60.9598 371.357 61.018 371.095 61.047C370.833 61.1052 370.571 61.1197 370.31 61.0907C370.077 61.0616 369.888 60.9889 369.743 60.8725C369.248 60.5526 368.87 60.1745 368.608 59.7382C368.317 59.2729 368.172 58.7785 368.172 58.2549C368.085 56.6553 368.23 55.0266 368.608 53.3688C368.957 51.6819 369.379 50.1549 369.873 48.788C370.019 48.3808 370.222 47.9591 370.484 47.5228C370.746 47.261 371.051 47.1883 371.4 47.3047C371.749 47.421 372.055 47.6682 372.317 48.0463C372.607 48.3953 372.811 48.8316 372.927 49.3551C373.073 49.8786 373.058 50.4021 372.884 50.9257C372.738 51.4201 372.607 51.9 372.491 52.3653C372.375 52.8016 372.244 53.267 372.098 53.7614C372.04 53.9941 371.938 54.3285 371.793 54.7648C371.677 55.2011 371.546 55.6664 371.4 56.1609C371.255 56.6262 371.124 57.077 371.008 57.5133C370.891 57.9495 370.819 58.284 370.79 58.5167C370.731 58.953 370.848 59.0693 371.139 58.8657C371.429 58.6621 371.822 58.3131 372.317 57.8187C373.509 56.5971 374.643 55.4192 375.719 54.2849C376.796 53.1215 377.857 51.9582 378.904 50.7948ZM372.796 45.5596C372.593 45.7632 372.447 45.7632 372.36 45.5596C371.982 44.9779 371.735 44.3671 371.619 43.7273C371.502 43.0874 371.56 42.4476 371.793 41.8077C371.909 41.4296 372.157 41.1242 372.535 40.8915C372.942 40.6298 373.305 40.5425 373.625 40.6298C373.8 40.6879 373.989 40.7897 374.192 40.9352C374.396 41.0515 374.527 41.1969 374.585 41.3714C374.789 42.1567 374.672 42.9129 374.236 43.64C373.829 44.3671 373.349 45.007 372.796 45.5596ZM388.277 50.7948L388.801 50.2713H388.844V50.3585C388.902 51.0275 388.844 51.5364 388.67 51.8854C388.495 52.2054 388.408 52.3799 388.408 52.409C388.117 52.8452 387.724 53.4124 387.23 54.1104C386.736 54.7793 386.212 55.4774 385.659 56.2045C385.136 56.9025 384.627 57.5569 384.133 58.1677C383.638 58.7494 383.245 59.1711 382.955 59.4329C382.606 59.84 382.228 60.2181 381.82 60.5671C381.675 60.6835 381.471 60.7853 381.21 60.8725C380.977 60.9598 380.73 61.018 380.468 61.047C380.206 61.1052 379.944 61.1197 379.683 61.0907C379.45 61.0616 379.261 60.9889 379.116 60.8725C378.621 60.5526 378.243 60.1745 377.981 59.7382C377.69 59.2729 377.545 58.7785 377.545 58.2549C377.458 56.6553 377.603 55.0266 377.981 53.3688C378.33 51.6819 378.752 50.1549 379.246 48.788C379.392 48.3808 379.595 47.9591 379.857 47.5228C380.119 47.261 380.424 47.1883 380.773 47.3047C381.122 47.421 381.428 47.6682 381.689 48.0463C381.98 48.3953 382.184 48.8316 382.3 49.3551C382.446 49.8786 382.431 50.4021 382.257 50.9257C382.111 51.4201 381.98 51.9 381.864 52.3653C381.748 52.8016 381.617 53.267 381.471 53.7614C381.413 53.9941 381.311 54.3285 381.166 54.7648C381.05 55.2011 380.919 55.6664 380.773 56.1609C380.628 56.6262 380.497 57.077 380.381 57.5133C380.264 57.9495 380.192 58.284 380.163 58.5167C380.104 58.953 380.221 59.0693 380.512 58.8657C380.802 58.6621 381.195 58.3131 381.689 57.8187C382.882 56.5971 384.016 55.4192 385.092 54.2849C386.168 53.1215 387.23 51.9582 388.277 50.7948ZM382.169 45.5596C381.966 45.7632 381.82 45.7632 381.733 45.5596C381.355 44.9779 381.108 44.3671 380.991 43.7273C380.875 43.0874 380.933 42.4476 381.166 41.8077C381.282 41.4296 381.53 41.1242 381.908 40.8915C382.315 40.6298 382.678 40.5425 382.998 40.6298C383.173 40.6879 383.362 40.7897 383.565 40.9352C383.769 41.0515 383.9 41.1969 383.958 41.3714C384.162 42.1567 384.045 42.9129 383.609 43.64C383.202 44.3671 382.722 45.007 382.169 45.5596ZM392.982 57.3388C392.72 57.5424 392.429 57.775 392.109 58.0368C391.789 58.2695 391.44 58.4876 391.062 58.6912C390.684 58.8657 390.277 59.0111 389.841 59.1275C389.434 59.2147 388.997 59.2147 388.532 59.1275C388.183 59.0693 387.863 58.953 387.572 58.7785C387.281 58.5749 387.005 58.3422 386.743 58.0804C386.482 57.8187 386.322 57.4406 386.263 56.9461C386.205 56.4517 386.191 56.0591 386.22 55.7682C386.365 55.012 386.569 54.2122 386.831 53.3688C387.092 52.5253 387.412 51.6964 387.79 50.882C388.43 49.5442 389.245 48.3517 390.233 47.3047C391.222 46.2576 392.415 45.5887 393.811 45.2978C394.276 45.1815 394.756 45.1669 395.251 45.2542C395.774 45.3124 396.225 45.4723 396.603 45.7341C396.981 45.9959 397.272 46.3303 397.475 46.7375C397.679 47.1156 397.723 47.5373 397.606 48.0027C397.548 48.1772 397.475 48.3517 397.388 48.5262C397.33 48.7007 397.243 48.8461 397.126 48.9625C397.039 49.0788 396.952 49.1515 396.865 49.1806C396.777 49.1806 396.69 49.0933 396.603 48.9188C396.574 48.8316 396.53 48.7152 396.472 48.5698C396.443 48.3953 396.385 48.2354 396.298 48.0899C396.21 47.9154 396.079 47.77 395.905 47.6537C395.76 47.5082 395.556 47.4355 395.294 47.4355C394.742 47.4355 394.116 47.7845 393.418 48.4826C392.72 49.1515 392.051 49.9513 391.411 50.882C390.772 51.7837 390.219 52.6998 389.754 53.6305C389.288 54.5321 388.997 55.2156 388.881 55.681C388.707 56.4372 388.721 56.8443 388.925 56.9025C389.128 56.9316 389.448 56.7716 389.884 56.4226C390.321 56.0445 390.815 55.5355 391.368 54.8957C391.92 54.2558 392.444 53.6305 392.938 53.0197C393.433 52.3799 393.854 51.8273 394.203 51.3619C394.582 50.8675 394.785 50.6057 394.814 50.5767C395.192 50.2858 395.57 50.1549 395.949 50.184C396.327 50.2131 396.647 50.3585 396.908 50.6203C397.199 50.853 397.388 51.1583 397.475 51.5364C397.592 51.8854 397.563 52.249 397.388 52.6271C397.185 53.0925 396.908 53.6451 396.559 54.2849C396.239 54.9248 396.036 55.4919 395.949 55.9864C395.861 56.7425 395.949 57.237 396.21 57.4697C396.472 57.7023 396.952 57.6878 397.65 57.426C398.203 57.1934 398.784 56.7862 399.395 56.2045C400.006 55.5937 400.602 54.9539 401.184 54.2849C401.795 53.616 402.362 52.9761 402.885 52.3653C403.409 51.7546 403.845 51.3038 404.194 51.0129C404.281 50.9257 404.383 50.8384 404.499 50.7512C404.645 50.6348 404.761 50.6057 404.848 50.6639C404.994 50.7221 405.067 50.8093 405.067 50.9257C405.096 51.0129 405.11 51.1147 405.11 51.231C404.732 52.1618 404.281 53.0779 403.758 53.9795C403.234 54.8811 402.638 55.7246 401.969 56.5099C401.329 57.2661 400.602 57.9495 399.788 58.5603C399.002 59.142 398.144 59.6074 397.214 59.9564C396.632 60.16 396.109 60.2181 395.643 60.1309C395.178 60.0727 394.756 59.9127 394.378 59.651C394 59.3892 393.695 59.0548 393.462 58.6476C393.229 58.2404 393.069 57.8041 392.982 57.3388ZM404.115 58.6039C403.999 58.8366 403.911 58.982 403.853 59.0402C403.388 59.3601 403.068 59.2729 402.893 58.7785C402.835 58.5458 402.792 58.3276 402.763 58.1241C402.733 57.9205 402.719 57.7023 402.719 57.4697C402.69 56.8298 402.69 56.1899 402.719 55.5501C402.806 54.823 402.981 54.0377 403.242 53.1942C403.504 52.3217 403.81 51.4637 404.159 50.6203C404.537 49.7768 404.915 48.9915 405.293 48.2644C405.7 47.5082 406.078 46.8975 406.427 46.4321C406.602 46.1704 406.834 46.0249 407.125 45.9959C407.445 45.9668 407.75 46.0395 408.041 46.214C408.332 46.3885 408.565 46.6357 408.739 46.9556C408.914 47.2756 408.957 47.6391 408.87 48.0463C408.841 48.0754 408.783 48.1626 408.696 48.3081C408.608 48.4535 408.521 48.6135 408.434 48.788C408.347 48.9625 408.259 49.137 408.172 49.3115C408.085 49.4569 408.027 49.5442 407.998 49.5732C408.318 49.3406 408.638 49.0788 408.957 48.788C409.277 48.4971 409.597 48.2208 409.917 47.9591C410.266 47.6973 410.615 47.4792 410.964 47.3047C411.313 47.1011 411.691 46.9993 412.099 46.9993C412.593 46.9993 413.029 47.1447 413.407 47.4355C413.785 47.6973 414.091 48.0318 414.324 48.4389C414.585 48.817 414.745 49.2388 414.803 49.7041C414.862 50.1404 414.833 50.5621 414.716 50.9693C414.454 51.7546 414.091 52.5253 413.626 53.2815C413.16 54.0086 412.68 54.7357 412.186 55.4628C411.721 56.1899 411.284 56.9316 410.877 57.6878C410.47 58.4149 410.179 59.1711 410.005 59.9564C409.83 60.5671 409.815 60.9452 409.961 61.0907C410.135 61.2361 410.354 61.2652 410.615 61.1779C410.877 61.0907 411.139 60.9452 411.401 60.7417C411.691 60.5381 411.895 60.3926 412.011 60.3054C413.204 59.3747 414.324 58.3567 415.371 57.2515C416.418 56.1172 417.45 55.0411 418.468 54.0232C419.341 53.1506 419.879 52.6853 420.082 52.6271C420.315 52.5398 420.344 52.6853 420.17 53.0634C420.024 53.4124 419.762 53.8923 419.384 54.503C419.035 55.1138 418.715 55.6519 418.424 56.1172C418.075 56.6989 417.596 57.4115 416.985 58.2549C416.374 59.0693 415.691 59.8546 414.934 60.6108C414.207 61.3961 413.451 62.0505 412.666 62.574C411.88 63.1266 411.153 63.4029 410.484 63.4029C409.99 63.4029 409.554 63.2865 409.176 63.0539C408.798 62.8503 408.478 62.5885 408.216 62.2686C407.954 61.9487 407.75 61.5851 407.605 61.1779C407.489 60.7707 407.431 60.3636 407.431 59.9564C407.431 58.5022 407.721 57.077 408.303 55.681C408.914 54.2849 409.554 53.0052 410.223 51.8418C410.543 51.231 410.63 50.8093 410.484 50.5767C410.339 50.344 409.917 50.3876 409.219 50.7075C408.638 50.9693 408.099 51.4492 407.605 52.1472C407.111 52.8162 406.645 53.5578 406.209 54.3722C405.802 55.1574 405.424 55.9427 405.075 56.728C404.726 57.5133 404.406 58.1386 404.115 58.6039Z" fill="white"/>
</svg>
