<svg width="20" height="20" viewBox="0 0 20 20" fill="none" xmlns="http://www.w3.org/2000/svg">
<path d="M18.6104 9.52713C18.6104 14.5259 14.5595 18.578 9.56287 18.578C4.56621 18.578 0.515336 14.5259 0.515336 9.52713C0.515336 4.52832 4.56621 0.476273 9.56287 0.476273C14.5595 0.476273 18.6104 4.52832 18.6104 9.52713Z" fill="#F3564C" stroke="#F3564C" stroke-width="0.952547"/>
<path d="M8.35295 7.92712H10.2104V13.9453H8.35295V7.92712ZM8.20435 6.03251C8.20435 5.73531 8.30754 5.48352 8.51393 5.27714C8.72857 5.0625 8.98448 4.95518 9.28168 4.95518C9.57887 4.95518 9.83066 5.0625 10.037 5.27714C10.2517 5.48352 10.359 5.73531 10.359 6.03251C10.359 6.3297 10.2517 6.58562 10.037 6.80026C9.83066 7.00664 9.57887 7.10984 9.28168 7.10984C8.98448 7.10984 8.72857 7.00664 8.51393 6.80026C8.30754 6.58562 8.20435 6.3297 8.20435 6.03251Z" fill="white"/>
</svg>
